<?xml version="1.0" encoding="UTF-8" standalone="no"?>
<!-- Created with Inkscape (http://www.inkscape.org/) -->

<svg
   width="128"
   height="128"
   viewBox="0 0 33.866666 33.866669"
   version="1.1"
   id="svg2571"
   inkscape:version="1.1.2 (0a00cf5339, 2022-02-04)"
   sodipodi:docname="mae.svg"
   inkscape:export-filename="/home/dognew/Projetos/pi-2023-altismo/mysite/pagehtml/templates/bot.png"
   inkscape:export-xdpi="96.075272"
   inkscape:export-ydpi="96.075272"
   xmlns:inkscape="http://www.inkscape.org/namespaces/inkscape"
   xmlns:sodipodi="http://sodipodi.sourceforge.net/DTD/sodipodi-0.dtd"
   xmlns="http://www.w3.org/2000/svg"
   xmlns:svg="http://www.w3.org/2000/svg"
   xmlns:rdf="http://www.w3.org/1999/02/22-rdf-syntax-ns#"
   xmlns:cc="http://creativecommons.org/ns#"
   xmlns:dc="http://purl.org/dc/elements/1.1/">
  <defs
     id="defs2565" />
  <sodipodi:namedview
     id="base"
     pagecolor="#ffffff"
     bordercolor="#666666"
     borderopacity="1.0"
     inkscape:pageopacity="0.0"
     inkscape:pageshadow="2"
     inkscape:zoom="2.8284271"
     inkscape:cx="67.351921"
     inkscape:cy="43.31029"
     inkscape:document-units="px"
     inkscape:current-layer="layer1"
     showgrid="false"
     fit-margin-top="0"
     fit-margin-left="0"
     fit-margin-right="0"
     fit-margin-bottom="0"
     inkscape:window-width="1440"
     inkscape:window-height="836"
     inkscape:window-x="1280"
     inkscape:window-y="27"
     inkscape:window-maximized="1"
     inkscape:pagecheckerboard="0"
     units="px" />
  <metadata
     id="metadata2568">
    <rdf:RDF>
      <cc:Work
         rdf:about="">
        <dc:format>image/svg+xml</dc:format>
        <dc:type
           rdf:resource="http://purl.org/dc/dcmitype/StillImage" />
      </cc:Work>
    </rdf:RDF>
  </metadata>
  <g
     inkscape:label="Layer 1"
     inkscape:groupmode="layer"
     id="layer1"
     transform="translate(-35.91576,-78.159798)">
    <circle
       style="fill:#ffffff;stroke:none;stroke-width:0.049953;-inkscape-stroke:none;stop-color:#000000"
       id="path845"
       cx="51.261593"
       cy="95.093132"
       r="12.266617" />
    <path
       style="fill:#483624;stroke:none;stroke-width:0.034558"
       d="m 50.491824,101.28957 v 0.0345 l -2.108043,0.86396 v 0.0345 c 0.580507,0 0.977234,-0.25936 1.520555,-0.41469 l -0.276464,0.41469 c 0.33663,-0.004 0.473964,-0.33113 0.691162,-0.55292 l -0.103675,0.55292 c 0.254002,-0.0198 0.261778,-0.34012 0.311023,-0.55292 h 0.03455 l 0.03456,0.51837 c 0.317002,-0.0529 0.148254,-0.66532 0.138233,-0.89851 l 1.727902,-0.44926 c 0,0.60131 -0.292948,0.91327 -0.622045,1.38232 0.460106,-0.001 0.767259,-0.62218 0.829394,-1.03674 0.233095,0.28442 0.310021,0.67544 0.311023,1.03674 h 0.207348 l -0.138232,-0.79483 c 0.974815,0.26609 1.804242,0.79483 2.833762,0.79483 v -0.0345 c -0.812149,-0.1879 -1.604669,-0.54039 -2.384507,-0.83113 -0.353287,-0.1317 -0.728761,-0.22248 -0.863951,-0.62032 1.309577,0 2.323753,-0.13035 3.524923,-0.69116 0.02346,0.12635 -0.03546,0.5518 0.05592,0.6197 0.140306,0.10429 0.483399,-0.1343 0.600689,-0.20728 0.549059,-0.34154 0.845774,-0.901619 0.979306,-1.518277 0.247436,-1.142627 -0.09852,-2.278584 -0.148565,-3.421248 -0.03981,-0.909079 0.224317,-1.777599 0.131045,-2.695524 -0.07658,-0.753643 -0.35277,-1.470378 -0.75271,-2.108044 -0.467226,-0.744965 -1.016734,-1.429645 -1.764189,-1.911122 -1.597136,-1.028831 -3.905236,-1.023992 -5.667524,-0.461498 -0.76401,0.243864 -1.323954,0.669562 -2.004368,1.056583 -0.25656,0.145939 -0.563435,0.220053 -0.829394,0.357343 -0.533822,0.275564 -0.990192,0.681014 -1.342297,1.166041 -0.976239,1.344759 -0.974584,3.014878 -0.321263,4.492551 0.243783,0.551375 0.644933,1.016285 0.89419,1.555113 0.139594,0.301758 0.195789,0.710476 0.262545,1.036741 0.09413,0.460035 0.166608,0.953666 0.06144,1.416881 -0.03941,0.173582 -0.328702,0.60943 -0.269159,0.74904 0.119989,0.28138 0.754807,0.50075 1.02557,0.58369 0.210147,0.0644 0.434982,0.12438 0.656603,0.11722 0.158933,-0.005 0.326124,-0.0818 0.483813,-0.0443 0.246434,0.0588 0.479079,0.20247 0.725719,0.27287 0.508488,0.14508 1.028967,0.18755 1.555113,0.18755 m 4.527109,-4.423438 c 0.05986,-0.405226 0.260498,-0.916201 0.622044,-1.140586 0.549232,-0.340884 1.093383,0.06186 1.105341,0.656776 0.01386,0.691888 -0.34769,1.495465 -0.967109,1.834893 -0.184402,0.101047 -0.810974,0.102496 -0.896643,0.24958 -0.04638,0.07958 -0.02178,0.180841 -0.07271,0.265472 -0.293675,0.488033 -0.854241,0.926813 -1.311479,1.254114 -1.79854,1.287499 -4.577735,1.670709 -6.240221,-0.08502 -0.593485,-0.626742 -0.648561,-1.248927 -0.835517,-2.033046 -0.175022,-0.734084 -0.403925,-1.485482 -0.422856,-2.246276 -0.0321,-1.289777 0.126787,-2.327105 0.929035,-3.386694 0.176592,-0.233194 0.607393,-0.829533 0.936593,-0.828461 0.166052,5.22e-4 0.353426,0.220003 0.483813,0.30909 0.309779,0.211701 0.649243,0.369737 1.002185,0.495458 1.492045,0.531504 3.584985,0.392715 4.68953,1.682702 0.504202,0.58887 0.672017,1.358342 0.760795,2.108045 0.02899,0.24498 -0.07185,0.776209 0.217199,0.863949 M 51.32122,92.950924 c -0.278848,0.0029 -0.554899,0.03339 -0.793314,0.192214 -0.05187,0.03455 -0.255005,0.226594 -0.118362,0.284482 0.09604,0.04071 0.274494,-0.138753 0.358747,-0.178871 0.223556,-0.106509 0.48288,-0.143693 0.72572,-0.09189 0.177352,0.03781 0.343921,0.111689 0.482466,0.230122 0.06611,0.0565 0.16612,0.216265 0.268032,0.198741 0.182017,-0.03129 -0.08691,-0.306359 -0.128625,-0.34468 -0.216023,-0.198574 -0.503373,-0.293536 -0.794664,-0.290117 m -4.181527,0.270211 c -0.180807,0.04151 -0.371982,0.150329 -0.485627,0.298752 -0.0381,0.04969 -0.12069,0.186303 -0.02075,0.223936 0.09126,0.03441 0.179626,-0.09976 0.235783,-0.149633 0.137645,-0.122237 0.324812,-0.21378 0.512497,-0.212186 0.185715,0.0014 0.383629,0.231984 0.541767,0.203855 0.186682,-0.03318 -0.078,-0.2577 -0.127243,-0.287452 -0.185923,-0.112449 -0.446594,-0.125445 -0.656431,-0.07727 m 4.043295,1.10548 c -0.324293,0.06918 -0.575566,0.269726 -0.714523,0.569587 -0.03363,0.0726 -0.15247,0.356502 -0.0021,0.382863 0.136643,0.02398 0.267756,-0.394164 0.347862,-0.483324 0.249336,-0.277571 0.657362,-0.338841 0.990814,-0.194395 0.409582,0.177458 0.626503,0.634631 0.681174,1.055127 0.0122,0.09396 -0.02685,0.445351 0.146872,0.417432 0.0047,-7.24e-4 0.415423,-0.463113 0.418775,-0.445625 -0.02454,-0.128249 -0.269312,-0.02405 -0.342643,-0.122374 -0.111693,-0.149808 -0.125377,-0.404712 -0.217302,-0.57515 -0.252862,-0.468742 -0.786852,-0.715526 -1.308921,-0.604141 m -4.699898,1.157073 c -0.35543,-0.05513 -0.08357,0.319282 0.0011,0.51322 0.0212,0.04861 0.06347,0.102946 0.124154,0.08284 0.142959,-0.0473 0.07722,-0.413209 0.08521,-0.52694 0.0376,-0.536518 0.454301,-1.047246 0.999039,-0.687433 0.111208,0.07347 0.190831,0.16339 0.265821,0.27208 0.0462,0.06694 0.215712,0.248435 0.254521,0.06447 0.09137,-0.432905 -0.661027,-0.699139 -0.969561,-0.684492 -0.499088,0.02369 -0.725533,0.529679 -0.760278,0.96625 m 5.460175,0.345578 c -0.273664,0.163288 -0.492694,-0.101424 -0.241906,-0.311024 -0.188065,-0.382313 -0.702704,-0.300172 -0.925327,0.0029 -0.235444,0.320767 -0.220757,0.780222 -0.08688,1.137303 0.184436,0.491974 0.800158,0.772138 1.15735,0.275948 0.22473,-0.312233 0.195288,-0.75478 0.09676,-1.105335 m -3.801393,0.207434 c -0.250131,0.129487 -0.470163,-0.131422 -0.207348,-0.276463 -0.145974,-0.295855 -0.55248,-0.253622 -0.726791,0.0014 -0.213569,0.312581 -0.21229,0.769088 -0.05685,1.104372 0.178977,0.386015 0.644716,0.600859 0.922908,0.172655 0.18181,-0.279853 0.182052,-0.697726 0.06808,-1.00205 m 7.118962,1.485997 c 0.237898,-0.128031 0.249579,-0.557699 0.348692,-0.794833 0.0857,-0.205101 0.227979,-0.406407 0.411585,-0.53517 0.08111,-0.05687 0.297166,-0.06737 0.333624,-0.164911 0.08795,-0.235164 -0.449116,-0.02514 -0.506274,0.01268 -0.39106,0.258773 -0.723958,1.01995 -0.587627,1.48223 m -6.324127,0.449255 c -0.402705,0.162427 0.314963,0.687918 0.07655,0.139789 -0.02132,-0.04904 -0.0498,-0.09372 -0.07655,-0.139789 m 2.004369,1.209534 c -0.253968,-0.05716 -0.576602,0.411549 -0.863952,0.492589 -0.34292,0.09669 -0.716044,0.07099 -1.036743,-0.09092 -0.101566,-0.05129 -0.347239,-0.319594 -0.462283,-0.252137 -0.214813,0.12593 0.381729,0.442793 0.462283,0.476797 0.62056,0.261915 1.68087,0.114043 1.900695,-0.626329 z"
       id="path12047" />
    <path
       id="rect12306"
       style="fill:#ffffff;stroke-width:0.264583;stop-color:#000000;stroke:none"
       d="m 69.782424,91.164383 v 7.857496 l -3.928748,-3.928748 z"
       sodipodi:nodetypes="cccc" />
  </g>
</svg>
