<?xml version="1.0" encoding="UTF-8" standalone="no"?>
<!-- Created with Inkscape (http://www.inkscape.org/) -->

<svg
   width="128"
   height="128"
   viewBox="0 0 33.866666 33.866669"
   version="1.1"
   id="svg2571"
   inkscape:version="1.1.2 (0a00cf5339, 2022-02-04)"
   sodipodi:docname="psicologo.svg"
   inkscape:export-filename="/home/dognew/Projetos/pi-2023-altismo/mysite/pagehtml/templates/bot.png"
   inkscape:export-xdpi="96.075272"
   inkscape:export-ydpi="96.075272"
   xmlns:inkscape="http://www.inkscape.org/namespaces/inkscape"
   xmlns:sodipodi="http://sodipodi.sourceforge.net/DTD/sodipodi-0.dtd"
   xmlns="http://www.w3.org/2000/svg"
   xmlns:svg="http://www.w3.org/2000/svg"
   xmlns:rdf="http://www.w3.org/1999/02/22-rdf-syntax-ns#"
   xmlns:cc="http://creativecommons.org/ns#"
   xmlns:dc="http://purl.org/dc/elements/1.1/">
  <defs
     id="defs2565" />
  <sodipodi:namedview
     id="base"
     pagecolor="#ffffff"
     bordercolor="#666666"
     borderopacity="1.0"
     inkscape:pageopacity="0.0"
     inkscape:pageshadow="2"
     inkscape:zoom="1.4142136"
     inkscape:cx="95.10586"
     inkscape:cy="20.859649"
     inkscape:document-units="px"
     inkscape:current-layer="layer1"
     showgrid="false"
     fit-margin-top="0"
     fit-margin-left="0"
     fit-margin-right="0"
     fit-margin-bottom="0"
     inkscape:window-width="1440"
     inkscape:window-height="836"
     inkscape:window-x="1280"
     inkscape:window-y="27"
     inkscape:window-maximized="1"
     inkscape:pagecheckerboard="0"
     units="px"
     inkscape:snap-page="true" />
  <metadata
     id="metadata2568">
    <rdf:RDF>
      <cc:Work
         rdf:about="">
        <dc:format>image/svg+xml</dc:format>
        <dc:type
           rdf:resource="http://purl.org/dc/dcmitype/StillImage" />
      </cc:Work>
    </rdf:RDF>
  </metadata>
  <g
     inkscape:label="Layer 1"
     inkscape:groupmode="layer"
     id="layer1"
     transform="translate(-35.91576,-78.159798)">
    <g
       id="g1222"
       inkscape:export-filename="/home/dognew/Projetos/pi-2023-altismo/mysite/pagehtml/static/images/psicologo-chat.png"
       inkscape:export-xdpi="96.075272"
       inkscape:export-ydpi="96.075272">
      <rect
         style="fill:#ffffff;fill-opacity:0.000114052;stroke:none;stroke-width:0.264583;-inkscape-stroke:none;stop-color:#000000"
         id="rect941-1"
         width="33.866669"
         height="33.866669"
         x="35.91576"
         y="78.159798" />
      <g
         id="g1030"
         transform="matrix(-1,0,0,1,108.87319,0)">
        <circle
           style="fill:#ffffff;stroke:none;stroke-width:0.049953;-inkscape-stroke:none;stop-color:#000000"
           id="path845"
           cx="-56.024097"
           cy="95.093132"
           r="12.266617"
           transform="scale(-1,1)" />
      </g>
    </g>
    <path
       style="font-variation-settings:normal;opacity:1;vector-effect:none;fill:#00002b;fill-opacity:1;stroke:none;stroke-width:0.00423053;stroke-linecap:butt;stroke-linejoin:miter;stroke-miterlimit:4;stroke-dasharray:none;stroke-dashoffset:0;stroke-opacity:1;-inkscape-stroke:none;stop-color:#000000;stop-opacity:1"
       d="m 47.203432,102.8386 c 0.05563,-0.11138 0.132368,-0.23668 0.170519,-0.27853 0.08361,-0.0916 0.318394,-0.21449 0.47423,-0.24805 0.06946,-0.0149 0.183696,-0.0894 0.294959,-0.19232 0.09989,-0.0923 0.362242,-0.30407 0.583019,-0.47048 0.220788,-0.16639 0.450093,-0.35877 0.509583,-0.4275 0.05953,-0.0688 0.244066,-0.21971 0.41017,-0.33552 0.218167,-0.1521 0.326042,-0.25158 0.38863,-0.35839 0.0476,-0.0813 0.08172,-0.15145 0.0757,-0.15586 -0.0056,-0.004 -0.07659,-0.041 -0.156706,-0.0812 -0.400504,-0.20121 -1.156616,-0.904136 -1.582707,-1.471366 -0.458767,-0.61074 -0.929596,-1.46818 -1.158913,-2.110538 -0.08261,-0.231372 -0.09209,-0.299007 -0.08908,-0.631604 0.0022,-0.204865 0.04315,-0.678568 0.09175,-1.052671 0.04861,-0.374103 0.100226,-0.839087 0.114719,-1.033298 l 0.02642,-0.35311 -0.126192,-0.31453 C 46.9655,92.665529 46.789451,91.768991 46.82195,91.248039 c 0.0495,-0.793356 0.611804,-1.701976 1.454887,-2.350893 0.544054,-0.41876 1.577634,-0.933317 2.535103,-1.262069 0.916709,-0.31476 1.648361,-0.458036 2.477821,-0.485217 0.67951,-0.02226 1.062656,0.02606 1.581625,0.199519 0.599519,0.200379 1.051463,0.480035 1.539551,0.952662 0.367582,0.355932 0.647915,0.716095 0.878982,1.129271 0.124374,0.222404 0.184487,0.297918 0.259116,0.325474 0.163328,0.06032 0.450038,0.309021 0.623968,0.541281 0.376133,0.502252 0.604179,1.138053 0.684561,1.908584 -0.442535,-0.01048 0.152145,0.913971 -0.0045,1.327986 -0.05173,0.559469 -0.333802,1.597045 -0.44181,1.625291 -0.0427,0.01116 -0.06689,0.07533 -0.09766,0.258362 -0.06031,0.359058 -0.243553,0.905689 -0.381194,1.13733 -0.213341,0.359006 -0.667247,0.772137 -1.077295,0.98051 -0.238882,0.121392 -0.370993,0.145767 -0.538758,0.0994 -0.09476,-0.02619 -0.130874,-0.0257 -0.140172,0.0019 -0.0291,0.08667 -0.528925,0.805044 -0.666589,0.958164 -0.0825,0.0917 -0.309587,0.28601 -0.504688,0.43173 -0.195101,0.14571 -0.354728,0.27514 -0.354728,0.28762 0,0.0125 0.06622,0.0702 0.147062,0.12829 0.242795,0.17436 0.36688,0.32329 0.426235,0.51158 0.04303,0.136446 0.128555,0.260586 0.384495,0.557926 0.420583,0.48861 0.767094,0.92093 1.001048,1.24891 0.101676,0.14252 0.223575,0.27908 0.270935,0.30346 0.127039,0.0654 0.260031,0.19774 0.346065,0.34435 0.07001,0.11929 0.222516,0.59718 0.198301,0.6214 -0.0056,0.006 -1.463873,0.007 -3.24021,0.002 l -3.229697,-0.008 0.673757,-0.63161 0.673747,-0.6316 -0.07603,-0.16195 c -0.102902,-0.21925 -0.362844,-0.63711 -0.388843,-0.6251 -0.01159,0.006 -0.175725,0.17006 -0.36485,0.36605 -0.226251,0.23448 -0.350815,0.38958 -0.364182,0.45346 -0.01115,0.0534 -0.04995,0.31573 -0.08607,0.58295 -0.09532,0.70431 -0.08239,0.66399 -0.21256,0.66399 -0.06767,0 -0.110372,-0.0158 -0.109703,-0.0405 6.14e-4,-0.0223 0.04136,-0.32107 0.09053,-0.66399 l 0.08941,-0.62351 h -0.134565 c -0.07403,0 -0.199717,-0.009 -0.279351,-0.0198 l -0.144799,-0.0199 -0.182682,0.32266 c -0.263955,0.46618 -0.376033,0.71636 -0.399233,0.89116 l -0.0204,0.15386 h -1.308082 -1.308082 z m 2.970245,-1.55977 c 0.02185,-0.14084 0.0359,-0.25983 0.03122,-0.26442 -0.0045,-0.004 -0.04381,0.0203 -0.08707,0.0553 -0.06254,0.0507 -0.0971,0.14436 -0.169616,0.45876 -0.05006,0.21728 -0.09108,0.41693 -0.0912,0.44365 -1e-4,0.0268 0.06221,-0.0608 0.1384,-0.19434 0.106358,-0.18648 0.147808,-0.30242 0.178255,-0.49899 z m 3.919977,-1.21671 c 0.389445,-0.360236 0.429424,-0.407336 0.410337,-0.483396 -0.02999,-0.11945 -0.0359,-0.12083 -0.170351,-0.0395 -0.521757,0.31575 -1.891012,0.864236 -2.315262,0.927426 -0.106247,0.0158 -0.153852,0.0382 -0.153852,0.0723 0,0.0271 0.09934,0.19845 0.22081,0.38066 0.121443,0.1822 0.25613,0.41132 0.299297,0.50913 l 0.07849,0.17784 0.599518,-0.57267 c 0.329744,-0.31497 0.793695,-0.75228 1.031016,-0.9718 z m -2.842972,1.18127 c 0.126515,-0.1247 0.273889,-0.28138 0.327491,-0.34818 0.08986,-0.11198 0.09421,-0.12881 0.05574,-0.21568 -0.03802,-0.0859 -0.06277,-0.0973 -0.279351,-0.12957 -0.395365,-0.0588 -0.554266,-0.0474 -0.694739,0.05 -0.08863,0.0614 -0.133338,0.12271 -0.159549,0.21863 -0.03757,0.13767 -0.12016,0.58099 -0.110706,0.59427 0.01316,0.0184 0.370537,0.0613 0.494231,0.0594 0.124742,-0.002 0.15704,-0.0221 0.366824,-0.22885 z m -0.829125,-0.76878 c 0.01695,-0.0136 0.0022,-0.0247 -0.03233,-0.0246 -0.03724,1.3e-4 -0.08763,0.0433 -0.12278,0.10527 l -0.05964,0.10506 0.09198,-0.0805 c 0.05062,-0.0443 0.105913,-0.0916 0.122781,-0.10527 z m 2.074574,-0.37246 c 0.535592,-0.183016 1.221334,-0.470996 1.522326,-0.639306 0.210319,-0.11762 1.023836,-0.72818 1.225225,-0.91957 0.288527,-0.27421 0.700158,-0.897098 0.784453,-1.187085 0.0291,-0.100104 0.07548,-0.190655 0.103013,-0.201223 0.07392,-0.02839 0.154398,0.03604 0.156315,0.125197 0.0022,0.121958 0.04125,0.157465 0.170274,0.156698 0.327402,-0.0019 1.020435,-0.531807 1.284135,-0.981777 0.179192,-0.305775 0.373357,-1.011978 0.373713,-1.359291 3.68e-4,-0.361432 -0.116938,-0.508532 -0.405554,-0.508532 -0.151187,0 -0.18169,0.01409 -0.373379,0.172519 -0.306678,0.253463 -0.417551,0.407324 -0.670079,0.929885 -0.225916,0.467463 -0.364405,0.67904 -0.444485,0.67904 -0.0912,0 -0.12646,-0.122097 -0.19887,-0.688915 -0.116882,-0.914849 -0.321772,-1.74176 -0.449257,-1.813099 -0.408007,-0.228334 -1.78976,-1.616112 -2.316712,-2.326812 -0.106804,-0.144098 -0.194566,-0.249803 -0.194945,-0.2349 -3.68e-4,0.01491 -0.02174,0.202003 -0.0476,0.415777 -0.05452,0.452282 -0.06321,1.22746 -0.0165,1.474031 0.02363,0.124732 0.02219,0.183392 -0.0056,0.216518 -0.167185,0.201445 -0.501121,-0.369904 -0.723046,-1.237091 -0.144676,-0.565316 -0.192035,-1.034891 -0.170418,-1.689561 l 0.0175,-0.531419 -0.06957,0.02176 c -0.358742,0.112181 -1.196618,0.526145 -1.720181,0.849882 -0.852671,0.52724 -1.530141,1.192605 -1.780284,1.74848 -0.05273,0.117148 -0.07514,0.13701 -0.145746,0.128803 -0.06121,-0.0071 -0.08629,-0.03125 -0.09398,-0.09068 -0.01182,-0.09068 -0.12152,-0.192522 -0.208536,-0.193618 -0.116938,-0.0014 -0.211456,0.246461 -0.267812,0.702486 -0.01639,0.132326 -0.03545,0.173403 -0.08841,0.190211 -0.04437,0.01408 -0.08072,0.0033 -0.106024,-0.03114 -0.032,-0.04379 -0.04181,-0.02417 -0.05887,0.117492 -0.01126,0.09354 -0.02062,0.293956 -0.02096,0.445379 -2.45e-4,0.151423 -0.04426,0.61055 -0.09766,1.020281 -0.05351,0.409733 -0.106247,0.905299 -0.117351,1.101257 -0.01918,0.340016 -0.0155,0.370343 0.08172,0.663993 0.2244,0.677897 0.793839,1.674364 1.304916,2.283484 0.472067,0.56263 1.079869,1.08325 1.453884,1.245336 0.221312,0.0959 0.555537,0.12682 1.277434,0.11814 l 0.550632,-0.007 z m -2.542327,-2.276551 c -0.461041,-0.04813 -0.734496,-0.121218 -0.809281,-0.216296 -0.122579,-0.155832 -0.05898,-0.442166 0.09421,-0.424334 0.07615,0.0088 0.08239,0.02112 0.07458,0.145964 -0.01003,0.168102 0.01672,0.185588 0.365687,0.234682 0.918526,0.129224 1.893063,0.05334 2.727651,-0.212422 0.264301,-0.08416 0.278805,-0.08551 0.319531,-0.02981 0.09186,0.125593 -0.05741,0.207055 -0.651204,0.355352 -0.592751,0.148047 -1.504934,0.211199 -2.121253,0.14686 z m 6.726426,-1.37246 c -0.03222,-0.084 0.0056,-0.137343 0.142045,-0.198742 0.186896,-0.08427 0.193663,-0.101943 0.134241,-0.35028 l -0.05296,-0.221152 0.09476,-0.181015 c 0.05218,-0.09956 0.170564,-0.25864 0.263187,-0.353513 0.174587,-0.178822 0.290177,-0.216618 0.431374,-0.141052 0.182927,0.0979 0.219428,0.757523 0.0456,0.824223 -0.104686,0.04017 -0.147574,-0.04418 -0.124329,-0.244478 0.02497,-0.214986 -0.0033,-0.384461 -0.06377,-0.384461 -0.05407,0 -0.288081,0.253778 -0.35718,0.387407 -0.04872,0.09413 -0.04905,0.122294 -0.0045,0.317044 0.04114,0.180153 0.04203,0.229889 0.0056,0.316528 -0.07559,0.180838 -0.466025,0.355098 -0.514221,0.229491 z m -7.244928,-0.151063 c -0.117506,-0.04998 -0.223798,-0.15824 -0.298594,-0.304148 -0.159403,-0.310931 0.05429,-0.876847 0.582383,-1.542564 0.122803,-0.15479 0.169582,-0.191673 0.234155,-0.18462 0.135479,0.0148 0.110706,0.1054 -0.106804,0.390404 -0.474085,0.621342 -0.627936,1.023965 -0.491845,1.287137 0.02687,0.05203 0.07693,0.109602 0.111264,0.127951 0.09967,0.05335 0.364795,0.0387 0.568614,-0.03143 0.224623,-0.07728 0.326567,-0.08198 0.351807,-0.0162 0.03501,0.09116 -0.01695,0.141584 -0.216819,0.210387 -0.231769,0.07979 -0.617055,0.112895 -0.734183,0.06308 z m 2.72424,-1.02614 c -0.119714,-0.11971 -0.173172,-0.312324 -0.173172,-0.623896 0,-0.419408 0.120216,-0.69412 0.294882,-0.673879 0.06589,0.0077 0.103794,0.04675 0.166293,0.171837 0.07169,0.1433 0.08094,0.202977 0.08094,0.518238 0,0.387121 -0.0534,0.561317 -0.201556,0.656731 -0.06622,0.04265 -0.07971,0.03872 -0.16742,-0.04903 z m -3.612207,-0.10259 c -0.13743,-0.151853 -0.19761,-0.686362 -0.114463,-1.016559 0.04036,-0.160234 0.157296,-0.31449 0.238447,-0.31449 0.147485,0 0.278114,0.327094 0.278114,0.696383 0,0.503192 -0.214578,0.841877 -0.402098,0.634666 z m 5.314572,-1.838491 c -0.01182,-0.01187 -0.02174,-0.08111 -0.02185,-0.153852 -0.0011,-0.562791 -0.209216,-0.929977 -0.496684,-0.876049 -0.194677,0.03652 -0.24867,-0.14374 -0.0641,-0.213922 0.229405,-0.08722 0.525614,0.08991 0.655585,0.39205 0.08941,0.20777 0.152067,0.690538 0.103459,0.797129 -0.03278,0.07205 -0.129224,0.101899 -0.176472,0.05464 z m -6.146663,-0.754733 c 0.03411,-0.08963 0.05619,-0.16298 0.04928,-0.16298 -0.0067,0 -0.04928,0.05802 -0.09409,0.128915 -0.07024,0.111219 -0.08083,0.163462 -0.07726,0.380582 l 0.0045,0.251665 0.02798,-0.217602 c 0.01539,-0.119681 0.05586,-0.290942 0.08997,-0.38058 z m 0.714807,-0.584049 c 0.03802,-0.151423 0.07715,-0.304465 0.08707,-0.340094 0.01873,-0.06766 -0.518847,0.440597 -0.576419,0.544983 -0.02876,0.05213 -0.02486,0.05501 0.03244,0.02429 0.08729,-0.04672 0.197743,-0.04216 0.296041,0.01224 0.04448,0.02463 0.08339,0.04233 0.08629,0.03934 0.0033,-0.003 0.03657,-0.129339 0.07447,-0.280761 z"
       id="path182376"
       sodipodi:nodetypes="sssssssssssscsscssssssssssccssssssssssssssssccccsssssssscsccsscccssssscssssssssscsssssssssssssscsssssssssssssssssscsscsscsssssssssscsssssscsssscsssssssscsssssssscsssssssssssssssssssssssssscssssscssccsccsssssss"
       inkscape:export-filename="/home/dognew/Projetos/pi-2023-altismo/mysite/pagehtml/static/images/psicologo-chat.png"
       inkscape:export-xdpi="96.075272"
       inkscape:export-ydpi="96.075272" />
  </g>
</svg>
