<?xml version="1.0" encoding="UTF-8" standalone="no"?>
<!-- Created with Inkscape (http://www.inkscape.org/) -->

<svg
   width="181.19107mm"
   height="248.36732mm"
   viewBox="0 0 181.19107 248.36732"
   version="1.1"
   id="svg5"
   inkscape:version="1.1.2 (0a00cf5339, 2022-02-04)"
   sodipodi:docname="uml-project.svg"
   inkscape:export-filename="/home/dognew/Projetos/pi-2023-altismo/sources/arts/uml-project.png"
   inkscape:export-xdpi="100"
   inkscape:export-ydpi="100"
   xmlns:inkscape="http://www.inkscape.org/namespaces/inkscape"
   xmlns:sodipodi="http://sodipodi.sourceforge.net/DTD/sodipodi-0.dtd"
   xmlns:xlink="http://www.w3.org/1999/xlink"
   xmlns="http://www.w3.org/2000/svg"
   xmlns:svg="http://www.w3.org/2000/svg">
  <sodipodi:namedview
     id="namedview7"
     pagecolor="#ffffff"
     bordercolor="#666666"
     borderopacity="1.0"
     inkscape:pageshadow="2"
     inkscape:pageopacity="0.0"
     inkscape:pagecheckerboard="0"
     inkscape:document-units="mm"
     showgrid="false"
     inkscape:zoom="0.19242424"
     inkscape:cx="168.89764"
     inkscape:cy="363.77953"
     inkscape:window-width="1280"
     inkscape:window-height="683"
     inkscape:window-x="0"
     inkscape:window-y="0"
     inkscape:window-maximized="1"
     inkscape:current-layer="layer1"
     fit-margin-top="0"
     fit-margin-left="0"
     fit-margin-right="0"
     fit-margin-bottom="0" />
  <defs
     id="defs2">
    <clipPath
       id="clipPath8">
      <path
         d="M 76,2 V 48 H 54 V 71 H 35.580737 c -0.07818,0.665694 -0.141485,1.332869 -0.205737,2 -1.151162,12.530963 1.036422,24.087546 6.0625,33.96875 L 43.125,110 c 1.011403,1.81678 2.191241,3.52297 3.4375,5.1875 1.244725,1.66248 1.685716,2.58262 2.46875,3.6875 C 62.319911,133.81083 82.129473,141 105,141 155.64836,141 198.63299,118.56201 217.65625,68.15625 231.15302,69.54122 244.09968,66.080358 250,54.5625 240.60137,49.138835 228.52163,50.877226 221.5625,54.375 L 240,2 168,48 H 145 V 2 Z"
         id="path10" />
    </clipPath>
    <radialGradient
       id="a"
       cx="15.116"
       cy="63.965"
       r="12.289"
       gradientTransform="scale(1.644,0.60828)"
       gradientUnits="userSpaceOnUse">
      <stop
         offset="0"
         id="stop1257" />
      <stop
         offset="1"
         stop-opacity="0"
         id="stop1259" />
    </radialGradient>
    <radialGradient
       id="c"
       cx="11.827"
       cy="10.476"
       r="32.665001"
       gradientTransform="scale(1.1795,0.84779)"
       gradientUnits="userSpaceOnUse">
      <stop
         offset="0"
         stop-color="#fff"
         id="stop1262" />
      <stop
         offset="1"
         stop-color="#fff"
         stop-opacity="0"
         id="stop1264" />
    </radialGradient>
    <radialGradient
       id="e"
       cx="15.601"
       cy="12.142"
       r="43.527"
       gradientTransform="scale(0.99999,1)"
       gradientUnits="userSpaceOnUse">
      <stop
         offset="0"
         stop-color="#fff"
         id="stop1267" />
      <stop
         offset="1"
         stop-color="#fff"
         stop-opacity=".16495"
         id="stop1269" />
    </radialGradient>
    <radialGradient
       id="b"
       cx="18.247999"
       cy="15.716"
       r="29.993"
       gradientTransform="scale(0.99999,1)"
       gradientUnits="userSpaceOnUse">
      <stop
         offset="0"
         stop-color="#d3e9ff"
         id="stop1272" />
      <stop
         offset=".15517"
         stop-color="#d3e9ff"
         id="stop1274" />
      <stop
         offset=".75"
         stop-color="#4074ae"
         id="stop1276" />
      <stop
         offset="1"
         stop-color="#36486c"
         id="stop1278" />
    </radialGradient>
    <radialGradient
       id="d"
       cx="18.634001"
       cy="17.486"
       r="40.693001"
       fx="18.934"
       fy="17.809999"
       gradientTransform="matrix(1.0185,0,0,0.94748,-0.080952,0.030883)"
       gradientUnits="userSpaceOnUse">
      <stop
         offset="0"
         stop-color="#fff"
         id="stop1281" />
      <stop
         offset=".37931"
         stop-color="#fefefe"
         id="stop1283" />
      <stop
         offset="1"
         stop-color="#1d1d1d"
         id="stop1285" />
    </radialGradient>
    <linearGradient
       id="gradient_belly_shadow">
      <stop
         offset="0"
         stop-color="#000000"
         id="stop1743" />
      <stop
         offset="1"
         stop-color="#000000"
         stop-opacity="0.25"
         id="stop1745" />
    </linearGradient>
    <linearGradient
       id="gradient_wing_tip_right_shadow">
      <stop
         offset="0"
         stop-color="#110800"
         id="stop1748" />
      <stop
         offset="0.59"
         stop-color="#a65a00"
         stop-opacity="0.8"
         id="stop1750" />
      <stop
         offset="1"
         stop-color="#ff921e"
         stop-opacity="0"
         id="stop1752" />
    </linearGradient>
    <linearGradient
       id="gradient_wing_tip_right_glare_1">
      <stop
         offset="0"
         stop-color="#7c7c7c"
         id="stop1755" />
      <stop
         offset="1"
         stop-color="#7c7c7c"
         stop-opacity="0.33"
         id="stop1757" />
    </linearGradient>
    <linearGradient
       id="gradient_foot_left_layer_1">
      <stop
         offset="0"
         stop-color="#b98309"
         id="stop1765" />
      <stop
         offset="1"
         stop-color="#382605"
         id="stop1767" />
    </linearGradient>
    <linearGradient
       id="gradient_foot_left_glare">
      <stop
         offset="0"
         stop-color="#ebc40c"
         id="stop1770" />
      <stop
         offset="1"
         stop-color="#ebc40c"
         stop-opacity="0"
         id="stop1772" />
    </linearGradient>
    <linearGradient
       id="gradient_foot_right_shadow">
      <stop
         offset="0"
         stop-color="#000000"
         id="stop1775" />
      <stop
         offset="1"
         stop-color="#000000"
         stop-opacity="0"
         id="stop1777" />
    </linearGradient>
    <linearGradient
       id="gradient_foot_right_layer_1">
      <stop
         offset="0"
         stop-color="#3e2a06"
         id="stop1780" />
      <stop
         offset="1"
         stop-color="#ad780a"
         id="stop1782" />
    </linearGradient>
    <linearGradient
       id="gradient_foot_right_glare">
      <stop
         offset="0"
         stop-color="#f3cd0c"
         id="stop1785" />
      <stop
         offset="1"
         stop-color="#f3cd0c"
         stop-opacity="0"
         id="stop1787" />
    </linearGradient>
    <linearGradient
       id="gradient_eyeball">
      <stop
         offset="0"
         stop-color="#fefefc"
         id="stop1790" />
      <stop
         offset="0.75"
         stop-color="#fefefc"
         id="stop1792" />
      <stop
         offset="1"
         stop-color="#d4d4d4"
         id="stop1794" />
    </linearGradient>
    <linearGradient
       id="gradient_pupil_left_glare">
      <stop
         offset="0"
         stop-color="#757574"
         stop-opacity="0"
         id="stop1797" />
      <stop
         offset="0.25"
         stop-color="#757574"
         id="stop1799" />
      <stop
         offset="0.5"
         stop-color="#757574"
         id="stop1801" />
      <stop
         offset="1"
         stop-color="#757574"
         stop-opacity="0"
         id="stop1803" />
    </linearGradient>
    <linearGradient
       id="gradient_pupil_right_glare_2">
      <stop
         offset="0"
         stop-color="#949494"
         stop-opacity="0.39"
         id="stop1806" />
      <stop
         offset="0.5"
         stop-color="#949494"
         id="stop1808" />
      <stop
         offset="1"
         stop-color="#949494"
         stop-opacity="0.39"
         id="stop1810" />
    </linearGradient>
    <linearGradient
       id="gradient_eyelid_left">
      <stop
         offset="0"
         stop-color="#c8c8c8"
         id="stop1813" />
      <stop
         offset="1"
         stop-color="#797978"
         id="stop1815" />
    </linearGradient>
    <linearGradient
       id="gradient_eyelid_right">
      <stop
         offset="0"
         stop-color="#747474"
         id="stop1818" />
      <stop
         offset="0.13"
         stop-color="#8c8c8c"
         id="stop1820" />
      <stop
         offset="0.25"
         stop-color="#a4a4a4"
         id="stop1822" />
      <stop
         offset="0.5"
         stop-color="#d4d4d4"
         id="stop1824" />
      <stop
         offset="0.62"
         stop-color="#d4d4d4"
         id="stop1826" />
      <stop
         offset="1"
         stop-color="#7c7c7c"
         id="stop1828" />
    </linearGradient>
    <linearGradient
       id="gradient_eyebrow">
      <stop
         offset="0"
         stop-color="#646464"
         stop-opacity="0"
         id="stop1831" />
      <stop
         offset="0.31"
         stop-color="#646464"
         stop-opacity="0.58"
         id="stop1833" />
      <stop
         offset="0.47"
         stop-color="#646464"
         id="stop1835" />
      <stop
         offset="0.73"
         stop-color="#646464"
         stop-opacity="0.26"
         id="stop1837" />
      <stop
         offset="1"
         stop-color="#646464"
         stop-opacity="0"
         id="stop1839" />
    </linearGradient>
    <linearGradient
       id="gradient_beak_base">
      <stop
         offset="0"
         stop-color="#020204"
         id="stop1842" />
      <stop
         offset="0.73"
         stop-color="#020204"
         id="stop1844" />
      <stop
         offset="1"
         stop-color="#5c5c5c"
         id="stop1846" />
    </linearGradient>
    <linearGradient
       id="gradient_mandible_lower">
      <stop
         offset="0"
         stop-color="#d2940a"
         id="stop1849" />
      <stop
         offset="0.75"
         stop-color="#d89c08"
         id="stop1851" />
      <stop
         offset="0.87"
         stop-color="#b67e07"
         id="stop1853" />
      <stop
         offset="1"
         stop-color="#946106"
         id="stop1855" />
    </linearGradient>
    <linearGradient
       id="gradient_mandible_upper">
      <stop
         offset="0"
         stop-color="#ad780a"
         id="stop1858" />
      <stop
         offset="0.12"
         stop-color="#d89e08"
         id="stop1860" />
      <stop
         offset="0.25"
         stop-color="#edb80b"
         id="stop1862" />
      <stop
         offset="0.39"
         stop-color="#ebc80d"
         id="stop1864" />
      <stop
         offset="0.53"
         stop-color="#f5d838"
         id="stop1866" />
      <stop
         offset="0.77"
         stop-color="#f6d811"
         id="stop1868" />
      <stop
         offset="1"
         stop-color="#f5cd31"
         id="stop1870" />
    </linearGradient>
    <linearGradient
       id="gradient_nares">
      <stop
         offset="0"
         stop-color="#3a2903"
         id="stop1873" />
      <stop
         offset="0.55"
         stop-color="#735208"
         id="stop1875" />
      <stop
         offset="1"
         stop-color="#ac8c04"
         id="stop1877" />
    </linearGradient>
    <linearGradient
       id="gradient_beak_corner">
      <stop
         offset="0"
         stop-color="#f5ce2d"
         id="stop1880" />
      <stop
         offset="1"
         stop-color="#d79b08"
         id="stop1882" />
    </linearGradient>
    <radialGradient
       id="fill_belly_shadow_left"
       href="#gradient_belly_shadow"
       xlink:href="#gradient_belly_shadow"
       gradientUnits="userSpaceOnUse"
       cx="0"
       cy="0"
       r="1"
       gradientTransform="matrix(19,0,0,18,61.18,121.19)" />
    <radialGradient
       id="fill_belly_shadow_right"
       href="#gradient_belly_shadow"
       xlink:href="#gradient_belly_shadow"
       gradientUnits="userSpaceOnUse"
       cx="0"
       cy="0"
       r="1"
       gradientTransform="matrix(23.6,0,0,18,125.74,131.6)" />
    <radialGradient
       id="fill_belly_shadow_middle"
       href="#gradient_belly_shadow"
       xlink:href="#gradient_belly_shadow"
       gradientUnits="userSpaceOnUse"
       cx="0"
       cy="0"
       r="1"
       gradientTransform="matrix(9.35,0,0,10,94.21,127.47)" />
    <linearGradient
       id="fill_foot_left_base"
       href="#gradient_foot_left_layer_1"
       xlink:href="#gradient_foot_left_layer_1"
       gradientUnits="userSpaceOnUse"
       x1="23.18"
       y1="193.00999"
       x2="64.309998"
       y2="262.01999" />
    <linearGradient
       id="fill_foot_left_glare"
       href="#gradient_foot_left_glare"
       xlink:href="#gradient_foot_left_glare"
       gradientUnits="userSpaceOnUse"
       x1="64.470001"
       y1="210.83"
       x2="77.410004"
       y2="235.21001" />
    <linearGradient
       id="fill_foot_right_shadow"
       href="#gradient_foot_right_shadow"
       xlink:href="#gradient_foot_right_shadow"
       gradientUnits="userSpaceOnUse"
       x1="146.92999"
       y1="211.96001"
       x2="150.2"
       y2="235.73" />
    <linearGradient
       id="fill_foot_right_base"
       href="#gradient_foot_right_layer_1"
       xlink:href="#gradient_foot_right_layer_1"
       gradientUnits="userSpaceOnUse"
       x1="151.5"
       y1="253.02"
       x2="192.94"
       y2="185.84" />
    <linearGradient
       id="fill_foot_right_glare"
       href="#gradient_foot_right_glare"
       xlink:href="#gradient_foot_right_glare"
       gradientUnits="userSpaceOnUse"
       x1="162.81"
       y1="180.67"
       x2="161.59"
       y2="191.64" />
    <radialGradient
       id="fill_wing_tip_right_shadow_lower"
       href="#gradient_wing_tip_right_shadow"
       xlink:href="#gradient_wing_tip_right_shadow"
       gradientUnits="userSpaceOnUse"
       cx="0"
       cy="0"
       r="1"
       gradientTransform="matrix(18.990102,5.0883824,-5.3420251,19.936709,169.71,194.53)" />
    <radialGradient
       id="fill_wing_tip_right_shadow_upper"
       href="#gradient_wing_tip_right_shadow"
       xlink:href="#gradient_wing_tip_right_shadow"
       gradientUnits="userSpaceOnUse"
       cx="0"
       cy="0"
       r="1"
       gradientTransform="matrix(19.722395,-0.83350987,0.62745474,14.846747,169.71,189.89)" />
    <radialGradient
       id="fill_wing_tip_right_glare_1"
       href="#gradient_wing_tip_right_glare_1"
       xlink:href="#gradient_wing_tip_right_glare_1"
       gradientUnits="userSpaceOnUse"
       cx="0"
       cy="0"
       r="1"
       gradientTransform="matrix(6.3735675,2.771306,-1.2799845,2.9437628,184.65,176.62)" />
    <linearGradient
       id="fill_wing_tip_right_glare_2"
       href="#gradient_wing_tip_right_glare_2"
       xlink:href="#gradient_wing_tip_right_glare_1"
       gradientUnits="userSpaceOnUse"
       x1="165.69"
       y1="173.58"
       x2="168.27"
       y2="173.47" />
    <radialGradient
       id="fill_eyeball_left"
       href="#gradient_eyeball"
       xlink:href="#gradient_eyeball"
       gradientUnits="userSpaceOnUse"
       cx="0"
       cy="0"
       r="1"
       gradientTransform="matrix(10.239439,-0.10723107,0.16419757,15.67914,86.49,51.41)" />
    <linearGradient
       id="fill_pupil_left_glare"
       href="#gradient_pupil_left_glare"
       xlink:href="#gradient_pupil_left_glare"
       gradientUnits="userSpaceOnUse"
       x1="84.290001"
       y1="46.639999"
       x2="89.32"
       y2="55.630001" />
    <radialGradient
       id="fill_eyelid_left"
       href="#gradient_eyelid_left"
       xlink:href="#gradient_eyelid_left"
       gradientUnits="userSpaceOnUse"
       cx="0"
       cy="0"
       r="1"
       gradientTransform="matrix(6.1669645,-1.015406,0.93742278,5.6933416,84.89,43.74)" />
    <linearGradient
       id="fill_eyebrow_left"
       href="#gradient_eyebrow"
       xlink:href="#gradient_eyebrow"
       gradientUnits="userSpaceOnUse"
       x1="83.589996"
       y1="32.509998"
       x2="94.480003"
       y2="43.630001" />
    <radialGradient
       id="fill_eyeball_right"
       href="#gradient_eyeball"
       xlink:href="#gradient_eyeball"
       gradientUnits="userSpaceOnUse"
       cx="0"
       cy="0"
       r="1"
       gradientTransform="matrix(13.633269,-0.42844275,0.4925207,15.672263,118.06,51.41)" />
    <linearGradient
       id="fill_pupil_right_glare"
       href="#gradient_pupil_right_glare_2"
       xlink:href="#gradient_pupil_right_glare_2"
       gradientUnits="userSpaceOnUse"
       x1="117.87"
       y1="47.25"
       x2="123.66"
       y2="54.110001" />
    <linearGradient
       id="fill_eyelid_right"
       href="#gradient_eyelid_right"
       xlink:href="#gradient_eyelid_right"
       gradientUnits="userSpaceOnUse"
       x1="112.9"
       y1="36.23"
       x2="131.32001"
       y2="47.009998" />
    <linearGradient
       id="fill_eyebrow_right"
       href="#gradient_eyebrow"
       xlink:href="#gradient_eyebrow"
       gradientUnits="userSpaceOnUse"
       x1="119.16"
       y1="31.559999"
       x2="131.42"
       y2="43.139999" />
    <radialGradient
       id="fill_beak_base"
       href="#gradient_beak_base"
       xlink:href="#gradient_beak_base"
       gradientUnits="userSpaceOnUse"
       cx="0"
       cy="0"
       r="1"
       gradientTransform="matrix(9.2551544,-6.7242633,6.1012109,8.3975964,97.64,60.12)" />
    <radialGradient
       id="fill_mandible_lower_base"
       href="#gradient_mandible_lower"
       xlink:href="#gradient_mandible_lower"
       gradientUnits="userSpaceOnUse"
       cx="0"
       cy="0"
       r="1"
       gradientTransform="matrix(25.101425,-10.346061,7.2670121,17.631093,109.77,70.61)" />
    <linearGradient
       id="fill_mandible_upper_base"
       href="#gradient_mandible_upper"
       xlink:href="#gradient_mandible_upper"
       gradientUnits="userSpaceOnUse"
       x1="78.089996"
       y1="69.260002"
       x2="126.77"
       y2="68.879997" />
    <radialGradient
       id="fill_naris_left"
       href="#gradient_nares"
       xlink:href="#gradient_nares"
       gradientUnits="userSpaceOnUse"
       cx="0"
       cy="0"
       r="1"
       gradientTransform="matrix(1.32,0,0,1.42,92.11,59.88)" />
    <radialGradient
       id="fill_naris_right"
       href="#gradient_nares"
       xlink:href="#gradient_nares"
       gradientUnits="userSpaceOnUse"
       cx="0"
       cy="0"
       r="1"
       gradientTransform="matrix(2.78,0,0,1.62,104.65,59.7)" />
    <linearGradient
       id="fill_beak_corner"
       href="#gradient_beak_corner"
       xlink:href="#gradient_beak_corner"
       gradientUnits="userSpaceOnUse"
       x1="126.74"
       y1="67.489998"
       x2="126.74"
       y2="71.089996" />
    <filter
       id="blur_belly_shadow_left"
       x="-0.049918751"
       y="-0.045849254"
       width="1.0998375"
       height="1.0916985">
      <feGaussianBlur
         stdDeviation="0.64 0.55"
         id="feGaussianBlur1911" />
    </filter>
    <filter
       id="blur_belly_shadow_right"
       x="-0.050747188"
       y="-0.073202616"
       width="1.1014944"
       height="1.1464052">
      <feGaussianBlur
         stdDeviation="0.98"
         id="feGaussianBlur1914" />
    </filter>
    <filter
       id="blur_belly_shadow_middle"
       x="-0.087319423"
       y="-0.081681683"
       width="1.1746388"
       height="1.1633634">
      <feGaussianBlur
         stdDeviation="0.68"
         id="feGaussianBlur1917" />
    </filter>
    <filter
       id="blur_belly_shadow_lower"
       x="-0.81953784"
       width="2.6390757"
       y="-0.057993427"
       height="1.1159869">
      <feGaussianBlur
         stdDeviation="1.25"
         id="feGaussianBlur1920" />
    </filter>
    <filter
       id="blur_belly_glare"
       x="-0.49197012"
       width="1.9839402"
       y="-0.59291106"
       height="2.1858221">
      <feGaussianBlur
         stdDeviation="1.78 2.19"
         id="feGaussianBlur1923" />
    </filter>
    <filter
       id="blur_head_glare"
       x="-0.29258274"
       width="1.5851655"
       y="-0.30859164"
       height="1.6171833">
      <feGaussianBlur
         stdDeviation="1.73"
         id="feGaussianBlur1926" />
    </filter>
    <filter
       id="blur_neck_glare"
       x="-0.17840844"
       width="1.3568169"
       y="-0.1601733"
       height="1.3203466">
      <feGaussianBlur
         stdDeviation="0.78"
         id="feGaussianBlur1929" />
    </filter>
    <filter
       id="blur_wing_left_glare"
       x="-0.1014502"
       width="1.2029004"
       y="-0.042861973"
       height="1.0857239">
      <feGaussianBlur
         stdDeviation="0.98"
         id="feGaussianBlur1932" />
    </filter>
    <filter
       id="blur_wing_right_glare"
       x="-0.11789708"
       width="1.2357942"
       y="-0.040211942"
       height="1.0804239">
      <feGaussianBlur
         stdDeviation="1.19 1.17"
         id="feGaussianBlur1935" />
    </filter>
    <filter
       id="blur_foot_left_layer_1"
       x="-0.10746297"
       width="1.2149259"
       y="-0.1084514"
       height="1.2169028">
      <feGaussianBlur
         stdDeviation="3.38"
         id="feGaussianBlur1938" />
    </filter>
    <filter
       id="blur_foot_left_layer_2"
       x="-0.075378264"
       y="-0.069657499"
       width="1.1507565"
       height="1.139315">
      <feGaussianBlur
         stdDeviation="2.1 2.06"
         id="feGaussianBlur1941" />
    </filter>
    <filter
       id="blur_foot_left_glare"
       x="-0.033862433"
       y="-0.018667963"
       width="1.0677249"
       height="1.0373359">
      <feGaussianBlur
         stdDeviation="0.32"
         id="feGaussianBlur1944" />
    </filter>
    <filter
       id="blur_foot_right_shadow"
       x="-0.076044024"
       y="-0.068073295"
       width="1.152088"
       height="1.1361466">
      <feGaussianBlur
         stdDeviation="1.95 1.9"
         id="feGaussianBlur1947" />
    </filter>
    <filter
       id="blur_foot_right_layer_1"
       x="-0.14509234"
       width="1.2901847"
       y="-0.14307408"
       height="1.2861482">
      <feGaussianBlur
         stdDeviation="4.12"
         id="feGaussianBlur1950" />
    </filter>
    <filter
       id="blur_foot_right_layer_2"
       x="-0.11510966"
       width="1.2302193"
       y="-0.12497624"
       height="1.2499525">
      <feGaussianBlur
         stdDeviation="3.12 3.37"
         id="feGaussianBlur1953" />
    </filter>
    <filter
       id="blur_foot_right_glare"
       x="-0.020750738"
       width="1.0415015"
       y="-0.12827013"
       height="1.2565403">
      <feGaussianBlur
         stdDeviation="0.41"
         id="feGaussianBlur1956" />
    </filter>
    <filter
       id="blur_wing_tip_right_shadow_lower"
       x="-0.20043875"
       width="1.4008775"
       y="-0.23394803"
       height="1.4678961">
      <feGaussianBlur
         stdDeviation="2.45"
         id="feGaussianBlur1959" />
    </filter>
    <filter
       id="blur_wing_tip_right_shadow_upper"
       x="-0.091629141"
       width="1.1832583"
       y="-0.10698003"
       height="1.2139601">
      <feGaussianBlur
         stdDeviation="1.12 0.81"
         id="feGaussianBlur1962" />
    </filter>
    <filter
       id="blur_wing_tip_right_glare"
       x="-0.070171062"
       width="1.1403421"
       y="-0.14997803"
       height="1.2999561">
      <feGaussianBlur
         stdDeviation="0.88"
         id="feGaussianBlur1965" />
    </filter>
    <filter
       id="blur_pupil_left_glare"
       x="-0.23332936"
       width="1.4666587"
       y="-0.14543877"
       height="1.2908775">
      <feGaussianBlur
         stdDeviation="0.44"
         id="feGaussianBlur1968" />
    </filter>
    <filter
       id="blur_eyebrow_left"
       x="-0.023848306"
       y="-0.026522859"
       width="1.0476966"
       height="1.0530457">
      <feGaussianBlur
         stdDeviation="0.12"
         id="feGaussianBlur1971" />
    </filter>
    <filter
       id="blur_pupil_right_glare"
       x="-0.17958931"
       width="1.3591786"
       y="-0.18232284"
       height="1.3646457">
      <feGaussianBlur
         stdDeviation="0.45"
         id="feGaussianBlur1974" />
    </filter>
    <filter
       id="blur_eyebrow_right"
       x="-0.023600604"
       y="-0.02557377"
       width="1.0472012"
       height="1.0511475">
      <feGaussianBlur
         stdDeviation="0.13"
         id="feGaussianBlur1977" />
    </filter>
    <filter
       id="blur_beak_shadow_lower"
       x="-0.076201891"
       width="1.1524038"
       y="-0.12887719"
       height="1.2577544">
      <feGaussianBlur
         stdDeviation="1.75"
         id="feGaussianBlur1980" />
    </filter>
    <filter
       id="blur_beak_shadow_upper"
       x="-0.036392431"
       y="-0.07408861"
       width="1.0727849"
       height="1.1481772">
      <feGaussianBlur
         stdDeviation="0.8 0.74"
         id="feGaussianBlur1983" />
    </filter>
    <filter
       id="blur_mandible_lower_glare"
       x="-0.15436869"
       width="1.3087374"
       y="-0.21067211"
       height="1.4213442">
      <feGaussianBlur
         stdDeviation="0.77"
         id="feGaussianBlur1986" />
    </filter>
    <filter
       id="blur_mandible_upper_shadow"
       x="-0.034221465"
       y="-0.078978968"
       width="1.0684429"
       height="1.1579579">
      <feGaussianBlur
         stdDeviation="0.65"
         id="feGaussianBlur1989" />
    </filter>
    <filter
       id="blur_mandible_upper_glare"
       x="-0.16064714"
       width="1.3212943"
       y="-0.13003773"
       height="1.2600755">
      <feGaussianBlur
         stdDeviation="0.73"
         id="feGaussianBlur1992" />
    </filter>
    <filter
       id="blur_naris_left"
       x="-0.12244099"
       width="1.244882"
       y="-0.11124302"
       height="1.222486">
      <feGaussianBlur
         stdDeviation="0.1"
         id="feGaussianBlur1995" />
    </filter>
    <filter
       id="blur_naris_right"
       x="-0.049122258"
       y="-0.093498015"
       width="1.0982445"
       height="1.186996">
      <feGaussianBlur
         stdDeviation="0.1"
         id="feGaussianBlur1998" />
    </filter>
    <filter
       id="blur_beak_corner"
       x="-0.11091169"
       width="1.2218234"
       y="-0.090640126"
       height="1.1812803">
      <feGaussianBlur
         stdDeviation="0.23"
         id="feGaussianBlur2001" />
    </filter>
    <clipPath
       id="clip_body">
      <use
         href="#body_base"
         xlink:href="#body_base"
         id="use2004"
         x="0"
         y="0"
         width="100%"
         height="100%" />
    </clipPath>
    <clipPath
       id="clip_wing_left">
      <use
         href="#wing_left_base"
         xlink:href="#wing_left_base"
         id="use2007"
         x="0"
         y="0"
         width="100%"
         height="100%" />
    </clipPath>
    <clipPath
       id="clip_wing_right">
      <use
         href="#wing_right_base"
         xlink:href="#wing_right_base"
         id="use2010"
         x="0"
         y="0"
         width="100%"
         height="100%" />
    </clipPath>
    <clipPath
       id="clip_foot_left">
      <use
         href="#foot_left_base"
         xlink:href="#foot_left_base"
         id="use2013"
         x="0"
         y="0"
         width="100%"
         height="100%" />
    </clipPath>
    <clipPath
       id="clip_foot_right">
      <use
         href="#foot_right_base"
         xlink:href="#foot_right_base"
         id="use2016"
         x="0"
         y="0"
         width="100%"
         height="100%" />
    </clipPath>
    <clipPath
       id="clip_wing_tip_right">
      <use
         href="#wing_tip_right_base"
         xlink:href="#wing_tip_right_base"
         id="use2019"
         x="0"
         y="0"
         width="100%"
         height="100%" />
    </clipPath>
    <clipPath
       id="clip_eye_left">
      <use
         href="#eyeball_left"
         xlink:href="#eyeball_left"
         id="use2022"
         x="0"
         y="0"
         width="100%"
         height="100%" />
    </clipPath>
    <clipPath
       id="clip_pupil_left">
      <use
         href="#pupil_left_base"
         xlink:href="#pupil_left_base"
         id="use2025"
         x="0"
         y="0"
         width="100%"
         height="100%" />
    </clipPath>
    <clipPath
       id="clip_eye_right">
      <use
         href="#eyeball_right"
         xlink:href="#eyeball_right"
         id="use2028"
         x="0"
         y="0"
         width="100%"
         height="100%" />
    </clipPath>
    <clipPath
       id="clip_pupil_right">
      <use
         href="#pupil_right_base"
         xlink:href="#pupil_right_base"
         id="use2031"
         x="0"
         y="0"
         width="100%"
         height="100%" />
    </clipPath>
    <clipPath
       id="clip_mandible_lower">
      <use
         href="#mandible_lower_base"
         xlink:href="#mandible_lower_base"
         id="use2034"
         x="0"
         y="0"
         width="100%"
         height="100%" />
    </clipPath>
    <clipPath
       id="clip_mandible_upper">
      <use
         href="#mandible_upper_base"
         xlink:href="#mandible_upper_base"
         id="use2037"
         x="0"
         y="0"
         width="100%"
         height="100%" />
    </clipPath>
    <clipPath
       id="clip_beak">
      <use
         href="#mandible_lower_base"
         xlink:href="#mandible_lower_base"
         id="use2040"
         x="0"
         y="0"
         width="100%"
         height="100%" />
      <use
         href="#mandible_upper_base"
         xlink:href="#mandible_upper_base"
         id="use2042"
         x="0"
         y="0"
         width="100%"
         height="100%" />
    </clipPath>
    <path
       id="path_wing_tip_right_glare"
       d="m 168.89,171.07 c -0.47,0.03 -0.93,0.08 -1.4,0.17 -2.99,0.53 -5.73,2.42 -7.27,5.03 -1.09,1.85 -1.58,4.03 -1.43,6.17 0.07,-1.5 0.46,-2.97 1.19,-4.28 1.23,-2.23 3.47,-3.91 5.98,-4.37 1.54,-0.28 3.13,-0.11 4.68,0.08 1.5,0.19 3,0.39 4.47,0.7 2.28,0.5 4.53,1.26 6.44,2.59 0.44,0.31 0.86,0.66 1.21,1.08 0.35,0.41 0.62,0.89 0.73,1.42 0.15,0.78 -0.07,1.6 -0.46,2.29 -0.39,0.7 -0.92,1.3 -1.48,1.86 -0.46,0.46 -0.94,0.89 -1.43,1.32 2.21,-0.43 4.44,-1.03 6.28,-2.31 0.77,-0.55 1.48,-1.2 1.94,-2.02 0.46,-0.83 0.65,-1.83 0.43,-2.75 -0.16,-0.62 -0.5,-1.19 -0.92,-1.67 -0.42,-0.48 -0.93,-0.87 -1.45,-1.24 -2.31,-1.62 -5.01,-2.65 -7.81,-2.99 -1.8,-0.33 -3.61,-0.61 -5.42,-0.83 -1.41,-0.18 -2.86,-0.33 -4.28,-0.25 z" />
    <clipPath
       clipPathUnits="userSpaceOnUse"
       id="clipPath109682">
      <rect
         style="opacity:1;fill:#afe9dd;stroke:#217867;stroke-width:0.330729;-inkscape-stroke:none;stop-color:#000000"
         id="rect109684"
         width="180.86034"
         height="248.03659"
         x="-498.48557"
         y="-15.369966"
         rx="18.121414"
         ry="18.121414" />
    </clipPath>
  </defs>
  <g
     inkscape:label="Camada 1"
     inkscape:groupmode="layer"
     id="layer1"
     transform="translate(-14.137378,-18.492772)">
    <rect
       style="opacity:1;fill:#afe9dd;stroke:#217867;stroke-width:0.330728;-inkscape-stroke:none;stop-color:#000000"
       id="rect94216"
       width="180.86034"
       height="248.03659"
       x="14.302742"
       y="18.658136"
       rx="18.121414"
       ry="18.121414"
       inkscape:export-filename="/home/dognew/Projetos/pi-2023-altismo/sources/arts/uml-project.png"
       inkscape:export-xdpi="100"
       inkscape:export-ydpi="100" />
    <ellipse
       style="opacity:1;fill:#40575d;fill-opacity:1;stroke:#116850;stroke-width:0.350707;stroke-opacity:1;-inkscape-stroke:none;stop-color:#000000"
       id="path109598"
       cx="-406.22455"
       cy="4.2172947"
       rx="119.34968"
       ry="85.511536"
       clip-path="url(#clipPath109682)"
       transform="translate(512.7883,34.028103)"
       inkscape:export-filename="/home/dognew/Projetos/pi-2023-altismo/sources/arts/uml-project.png"
       inkscape:export-xdpi="100"
       inkscape:export-ydpi="100" />
    <g
       transform="matrix(0.26984355,0,0,0.22921268,133.13976,64.37055)"
       id="layer1-4"
       style="fill:#40575d;fill-opacity:1"
       inkscape:export-filename="/home/dognew/Projetos/pi-2023-altismo/sources/arts/uml-project.png"
       inkscape:export-xdpi="100"
       inkscape:export-ydpi="100">
      <path
         d="m -101.47577,400.00486 c -0.0431,8.1975 5.967822,13.08438 15.560005,10.8625 v -21.725 c -9.713433,-2.95812 -15.519375,3.02656 -15.560005,10.8625 m 15.853442,-42.27625 h 13.21125 v 62.53344 c -12.663437,2.07031 -24.79187,3.38344 -33.468442,-1.46813 -11.17187,-6.24625 -12.07,-26.09562 -3.22968,-34.93625 4.48218,-4.48187 13.505622,-7.63718 23.193435,-5.57812 v -19.67 c -0.02531,-0.41688 -0.04875,-0.83188 0.293437,-0.88094"
         id="path2838"
         style="fill:#40575d;fill-opacity:1;fill-rule:evenodd;stroke:none" />
      <path
         d="M -50.979419,371.52699 H -64.19067 v -13.79844 h 13.211251 z"
         id="path2840"
         style="fill:#40575d;fill-opacity:1;fill-rule:evenodd;stroke:none" />
      <path
         d="m 107.55577,411.45442 c 14.40218,5.59688 15.99562,-25.77875 1.46812,-22.89968 -9.02187,1.78812 -8.73218,20.07687 -1.46812,22.89968 m 0.58718,-33.76218 c 10.99844,-1.17594 19.29594,3.6775 22.60625,11.15625 5.64813,12.76031 -0.31062,27.40218 -9.39468,31.70718 -4.70813,2.23125 -9.63813,2.44375 -14.09219,2.055 -13.766874,-1.20062 -22.449374,-15.23062 -17.614999,-30.82656 0.756562,-2.44094 1.606562,-3.93406 2.055312,-4.69719 2.9925,-5.08812 8.044688,-8.49687 16.440307,-9.39468"
         id="path2844"
         style="fill:#40575d;fill-opacity:1;fill-rule:evenodd;stroke:none" />
      <path
         d="m -32.777012,406.46358 c -3.654062,6.14094 5.526875,7.61219 11.449375,5.87187 v -9.10125 c -4.550625,0.63532 -9.730312,0.33969 -11.449375,3.22938 m 23.192813,14.38562 c -10.913125,0.62782 -27.498125,4.34532 -33.468438,-2.93562 -3.5075,-4.27813 -3.130312,-12.43781 0,-16.44094 4.045313,-5.1725 12.875938,-6.30062 20.844375,-7.04594 0.723438,-1.78125 0.235625,-4.67937 -0.587187,-5.87218 -7.28875,-1.85657 -14.530625,1.02031 -19.669688,3.22937 v -10.275 c 7.761875,-3.56625 25.740625,-7.32125 31.119688,0.88063 2.825,4.30781 1.76125,11.82062 1.76125,18.49562 z"
         id="path2848"
         style="fill:#40575d;fill-opacity:1;fill-rule:evenodd;stroke:none" />
      <path
         d="m 36.802301,421.43674 h -13.21125 v -17.02813 c 0,-5.60656 0.906875,-12.71562 -2.055625,-14.97281 -2.32,-1.76875 -7.824063,-0.88125 -11.155625,0 v 32.00094 H -2.8317618 V 380.6283 c 13.5053128,-3.50813 37.8831248,-7.26938 39.6340628,9.68812 0.863437,8.36063 -0.639688,20.90407 0,31.12032"
         id="path2852"
         style="fill:#40575d;fill-opacity:1;fill-rule:evenodd;stroke:none" />
      <path
         d="m 56.472393,407.34433 c 2.223125,3.59687 8.243125,4.94562 13.210938,2.64219 -0.272813,-6.87094 -0.368125,-13.91938 -0.293438,-21.13813 -11.4175,-3.01656 -18.221875,9.91594 -12.9175,18.49594 m 33.175,-27.89031 c -1.175937,3.52156 -2.896875,6.4975 -4.40375,9.68843 -1.361562,0.305 -2.541562,-0.54125 -3.229687,0 -0.30125,14.31094 3.047812,33.71157 -2.642188,44.03719 -3.425937,6.21688 -9.733437,10.20531 -19.376562,10.86281 -7.024688,0.47907 -12.476875,-0.66875 -17.615,-2.64218 v -12.33063 c 6.026562,3.51875 21.255,6.3875 25.541875,-0.88094 1.26125,-2.13843 1.18125,-4.34875 1.76125,-7.63312 -2.76,0.145 -5.439375,1.42312 -8.807188,1.46812 -13.845937,0.18375 -22.411875,-10.84093 -19.083125,-26.12937 1.2875,-5.91375 4.7525,-10.67531 9.395,-13.50469 9.641875,-5.87656 24.462813,-5.43031 38.459375,-2.93562"
         id="path2856"
         style="fill:#40575d;fill-opacity:1;fill-rule:evenodd;stroke:none" />
      <path
         d="m -50.979389,378.51405 c -0.015,9.72844 -0.0128,16.71906 -0.01375,28.53781 -0.56125,11.61469 -0.430625,20.86375 -4.683438,26.42125 -0.83875,1.09594 -2.62,2.69469 -4.110312,3.81688 -1.251564,0.94218 -3.636876,2.85281 -4.990939,2.93593 -1.365,0.0838 -4.871875,-1.895 -6.459062,-2.6425 -2.084063,-0.98156 -4.010625,-2.285 -6.165,-2.93562 5.025312,-3.11406 9.795625,-5.44875 11.743125,-11.74344 1.69375,-5.47437 1.468125,-13.40719 1.468125,-21.13812 0,-7.63375 0.03406,-16.50875 0.03406,-23.24875 l 13.177189,-0.003 z"
         id="path2860"
         style="fill:#40575d;fill-opacity:1;fill-rule:evenodd;stroke:none" />
    </g>
    <g
       id="g1073"
       transform="matrix(0.19030417,0,0,0.19030417,105.69093,176.74899)"
       inkscape:export-filename="/home/dognew/Projetos/pi-2023-altismo/sources/arts/uml-project.png"
       inkscape:export-xdpi="100"
       inkscape:export-ydpi="100">
      <path
         d="m 150,16.9 c -6.1,33.2 -14.1,57.3 -24.1,72.3 -7.78,11.6 -16.3,17.4 -25.6,17.4 -2.47,0 -5.52,-0.747 -9.14,-2.23 v -8 c 1.77,0.26 3.84,0.398 6.23,0.398 4.33,0 7.82,-1.2 10.5,-3.59 3.18,-2.92 4.77,-6.2 4.77,-9.83 0,-2.48 -1.24,-7.58 -3.71,-15.3 l -16.4,-51.2 h 14.7 l 11.8,38.3 c 2.65,8.69 3.76,14.8 3.31,18.2 6.45,-17.3 11,-36.1 13.5,-56.5 h 14.2 m -65,66.2 h -15 c -0.527,-25.3 -1.99,-49.2 -4.37,-71.5 h -0.132 l -22.8,71.5 h -11.4 l -22.7,-71.5 H 8.524 c -1.68,21.4 -2.74,45.3 -3.18,71.5 h -13.7 c 0.882,-31.9 3.09,-61.8 6.62,-89.7 h 18.6 l 21.6,65.9 h 0.133 l 21.7,-65.9 h 17.8 c 3.89,32.7 6.19,62.6 6.89,89.7"
         style="fill:#00758f"
         id="path1058" />
      <path
         d="M 350,83.1 H 307.5 V -6.6 h 14.3 V 72.1 H 350 v 11 M 243,65.2 C 239.38,59.35 237.56,50 237.56,37 c 0,-22.6 6.85,-33.9 20.5,-33.9 7.16,0 12.4,2.7 15.8,8.1 3.62,5.85 5.44,15.2 5.44,27.9 0,22.8 -6.85,34.2 -20.5,34.2 -7.16,0 -12.4,-2.7 -15.8,-8.11 m 53.3,20.1 -16.4,-8.13 c 1.46,-1.2 2.86,-2.5 4.11,-4.01 6.98,-8.23 10.5,-20.4 10.5,-36.5 0,-29.7 -11.6,-44.5 -34.9,-44.5 -11.4,0 -20.3,3.76 -26.6,11.3 -6.99,8.24 -10.5,20.4 -10.5,36.4 0,15.8 3.09,27.3 9.28,34.7 5.64,6.64 14.2,9.97 25.6,9.97 4.26,0 8.16,-0.526 11.7,-1.58 l 21.4,12.5 5.84,-10.1 m -80,-27 c 0,7.61 -2.79,13.9 -8.35,18.7 -5.56,4.87 -13,7.3 -22.4,7.3 -8.75,0 -17.2,-2.81 -25.5,-8.38 l 3.84,-7.71 c 7.07,3.54 13.5,5.31 19.2,5.31 5.39,0 9.61,-1.2 12.7,-3.58 3.04,-2.39 4.87,-5.73 4.87,-9.96 0,-5.33 -3.71,-9.88 -10.5,-13.7 -6.28,-3.45 -18.8,-10.7 -18.8,-10.7 -6.8,-4.97 -10.2,-10.3 -10.2,-19.1 0,-7.27 2.54,-13.1 7.62,-17.6 5.09,-4.48 11.6,-6.72 19.7,-6.72 8.31,0 15.9,2.22 22.7,6.65 l -3.46,7.7 c -5.82,-2.47 -11.6,-3.72 -17.2,-3.72 -4.59,0 -8.13,1.11 -10.6,3.33 -2.48,2.2 -4.01,5.04 -4.01,8.5 0,5.31 3.79,9.92 10.8,13.8 6.35,3.46 19.2,10.8 19.2,10.8 6.99,4.96 10.5,10.3 10.5,19"
         style="fill:#f29111"
         id="path1060" />
      <path
         d="m 358,83.1 h 2.37 v -9.13 h 3.1 v -1.86 h -8.7 v 1.86 h 3.22 z m 18.1,0 h 2.24 v -11 h -3.36 l -2.74,7.49 -2.98,-7.49 h -3.24 v 11 h 2.12 v -8.37 h 0.12 l 3.12,8.37 h 1.61 l 3.12,-8.37 v 8.37"
         style="fill:#f29111"
         id="path1062" />
    </g>
    <g
       id="g1180"
       transform="matrix(0.26458333,0,0,0.26458333,24.035487,214.18493)"
       inkscape:export-filename="/home/dognew/Projetos/pi-2023-altismo/sources/arts/uml-project.png"
       inkscape:export-xdpi="100"
       inkscape:export-ydpi="100">
      <path
         d="m 467.82,113.24092 -0.0422,-25.557862 -0.12687,-45.65718 m 25.85406,19.67617 -25.72712,25.98101 25.85407,25.642492 M 321.28547,88.021573 c 0.12417,-5.480933 -1.46904,-11.08143 -4.69689,-15.613994 -4.65126,-6.53132 -12.17919,-10.9904 -20.43783,-11.08636 -0.55059,0 -1.09558,0 -1.65026,0.04225 -3.26481,0.2017 -6.42662,0.655378 -9.22453,1.819517 -18.40057,7.656 -21.66082,33.207962 -6.13558,44.768574 13.44474,10.01139 33.00155,5.92365 39.77549,-9.351465 1.43144,-3.227887 2.3696,-7.297132 2.3696,-10.578554 V 41.814305 M 445.437,64.367851 c -3.80993,-2.4618 -8.25456,-3.349942 -12.65199,-3.342833 -0.47683,0 -0.96708,0.02383 -1.39637,0.04225 -12.71288,0.54677 -24.50001,9.530355 -24.50001,26.95424 0,20.600302 22.08809,31.718442 38.59069,22.003462 m 74.13473,-2.24266 c 13.00207,-11.137502 39.05614,-33.470582 39.05614,-33.470582 0,0 -0.94989,-1.797148 -1.56563,-2.623492 -5.25739,-7.055515 -13.28929,-10.5786 -21.74957,-10.578627 -20.90871,0 -36.58155,27.0365 -15.74094,46.672701 1.44301,1.35961 3.42523,2.42453 5.62781,3.34283 7.64747,3.18836 18.11655,2.92685 23.78066,-1.26943 M 364.02,61.194275 c -0.59271,0.01083 -1.18194,0.07366 -1.7772,0.08463 -15.85475,0.291353 -27.28615,16.759178 -23.82298,32.031962 3.37478,14.882963 19.63403,23.695883 33.68222,18.829883 16.35859,-4.28927 23.03061,-24.888756 14.04836,-38.802254 -4.9126,-7.60964 -13.23925,-12.3132 -22.1304,-12.144221 z m 240.72631,0.507772 c -6.42012,0.0172 -12.67273,2.265815 -17.30656,6.601038 -7.30767,6.03132 -8.89448,13.64741 -8.80139,23.2729 l 0.21157,21.876525"
         id="path12"
         style="fill:none;stroke:#394d54;stroke-width:10.5;stroke-linecap:round;stroke-linejoin:round" />
      <path
         d="m 147.4876,45.732 h 22.866 v 23.37473 h 11.56177 c 5.33905,0 10.83073,-0.95117 15.887,-2.66444 2.48448,-0.84244 5.27317,-2.01479 7.72392,-3.4892 -3.22785,-4.21436 -4.87579,-9.53574 -5.36101,-14.78106 -0.65874,-7.13426 0.78032,-16.42042 5.60897,-22.004216 l 2.40362,-2.780117 2.8642,2.302393 c 7.21138,5.79374 13.27612,13.88934 14.3451,23.11819 8.68312,-2.55411 18.87759,-1.95 26.53135,2.46735 l 3.14002,1.81182 -1.65276,3.2257 C 246.93289,68.946524 233.40077,72.859896 220.17071,72.167411 200.37356,121.4758 157.2729,144.82 105.01356,144.82 c -26.998899,0 -51.769845,-10.09272 -65.875552,-34.04693 -0.827018,-1.48798 -1.535233,-3.0439 -2.286326,-4.57212 C 32.083548,95.656747 30.499883,84.105687 31.574226,72.564267 l 0.32241,-3.457072 h 19.552937 v -23.37473 h 22.866 v -22.866 h 45.731997 v -22.866 h 27.43967 v 45.732"
         id="path14"
         style="fill:#394d54" />
      <g
         clip-path="url(#clipPath8)"
         id="g16">
        <g
           id="g18">
          <g
             transform="translate(0,-22.866)"
             id="g20">
            <path
               d="m 123.85901,3.8110794 h 19.81751 V 23.62805 h -19.81751 z"
               id="path22"
               style="fill:#00acd3" />
            <path
               d="m 123.85901,26.676485 h 19.81751 v 19.818043 h -19.81751 z"
               id="path24"
               style="fill:#20c2ef" />
            <path
               d="M 126.29235,21.976904 V 5.4611548 M 129.2642,21.976904 V 5.4611548 m 3.00184,16.5157492 V 5.4611548 m 3.00344,16.5157492 V 5.4611548 M 138.2724,21.976904 V 5.4611548 m 2.97131,16.5157492 V 5.4611548"
               id="path26"
               style="stroke:#394d54;stroke-width:1.56" />
            <use
               transform="translate(0,22.866)"
               id="use28"
               xlink:href="#path26"
               x="0"
               y="0"
               width="100%"
               height="100%" />
          </g>
          <use
             transform="matrix(1,0,0,-1,22.866,4.572651)"
             id="use30"
             xlink:href="#g20"
             x="0"
             y="0"
             width="100%"
             height="100%" />
        </g>
        <use
           transform="translate(-91.464,45.732)"
           id="use32"
           xlink:href="#g18"
           x="0"
           y="0"
           width="100%"
           height="100%" />
        <use
           transform="translate(-45.732,45.732)"
           id="use34"
           xlink:href="#g18"
           x="0"
           y="0"
           width="100%"
           height="100%" />
        <use
           transform="translate(0,45.732)"
           id="use36"
           xlink:href="#g18"
           x="0"
           y="0"
           width="100%"
           height="100%" />
      </g>
      <path
         d="m 221.57014,54.379649 c 1.53332,-11.915247 -7.38383,-21.274779 -12.91407,-25.71836 -6.37269,7.367765 -7.36295,26.677556 2.63498,34.807431 -5.57952,4.956117 -17.33731,9.448435 -29.37574,9.448435 L 34,72.917155 C 32.829255,85.484184 34,146 34,146 h 217 l -0.98657,-91.424 c -9.39863,-5.423665 -21.48419,-3.694326 -28.44332,-0.196552"
         clip-path="url(#clipPath8)"
         id="path38"
         style="fill:#17b5eb" />
      <path
         d="m 34,89 v 57 H 251 V 89"
         clip-path="url(#clipPath8)"
         id="path40"
         style="fill-opacity:0.17" />
      <path
         d="M 111.23736,140.88997 C 97.697741,134.4648 90.265707,125.73081 86.130611,116.19562 L 45,118 l 21,28 45.23736,-5.11003"
         clip-path="url(#clipPath8)"
         id="path42"
         style="fill:#d4edf1" />
      <path
         d="m 222.5,53.9375 v 0.03125 c -20.86119,26.889144 -50.78312,50.37872 -82.90625,62.71875 -28.65478,11.00767 -53.638381,11.06039 -70.875,2.21875 -1.85607,-1.04832 -3.675701,-2.21152 -5.5,-3.3125 C 50.582097,106.76175 43.464274,92.152308 44.0625,72.90625 H 34 V 146 H 251 V 50 h -25 z"
         clip-path="url(#clipPath8)"
         id="path44"
         style="fill-opacity:0.085" />
      <path
         d="m 45.625,117.03125 c 14.165153,0.77531 29.28245,0.91433 42.46875,-3.21875"
         id="path46"
         style="fill:none;stroke:#394d54;stroke-width:3.4;stroke-linecap:round" />
      <path
         d="m 102.17024,106.95926 c 0,3.01898 -2.447529,5.46651 -5.466508,5.46651 -3.019514,0 -5.467581,-2.44753 -5.467581,-5.46651 0,-3.01897 2.448067,-5.46758 5.467581,-5.46758 3.018979,0 5.466508,2.44861 5.466508,5.46758 z"
         id="path48"
         style="fill:#d4edf1" />
      <path
         d="m 98.121372,103.30778 c -0.477188,0.27582 -0.800133,0.79264 -0.800133,1.3839 0,0.88261 0.715514,1.59706 1.598125,1.59706 0.604653,0 1.130046,-0.3358 1.401576,-0.83174 0.19173,0.4622 0.29831,0.96991 0.29831,1.50226 0,2.16208 -1.752907,3.91498 -3.915518,3.91498 -2.162075,0 -3.91605,-1.7529 -3.91605,-3.91498 0,-2.16314 1.753975,-3.91658 3.91605,-3.91658 0.500218,0 0.977406,0.0943 1.41764,0.2651 z"
         id="path50"
         style="fill:#394d54" />
      <path
         d="m 0,90.162343 h 254.32743 c -5.53774,-1.404786 -17.521,-3.302293 -15.54477,-10.559732 -10.06915,11.651749 -34.35274,8.174326 -40.4812,2.428786 -6.82471,9.89831 -46.55451,6.135967 -49.32553,-1.575096 -8.55565,10.04077 -35.06718,10.04077 -43.62336,0 -2.77209,7.711063 -42.501357,11.473406 -49.326595,1.575096 C 49.897506,87.776937 25.616067,91.25436 15.545841,79.602611 17.522075,86.86005 5.5388117,88.757557 0,90.162343"
         id="path52"
         style="fill:#394d54" />
    </g>
    <g
       id="g93844"
       transform="matrix(2.282162,0,0,2.282162,1012.1636,-70.993782)"
       inkscape:export-filename="/home/dognew/Projetos/pi-2023-altismo/sources/arts/uml-project.png"
       inkscape:export-xdpi="100"
       inkscape:export-ydpi="100">
      <g
         id="g1330"
         transform="matrix(0.72585335,0,0,0.72585335,-415.70202,40.042697)">
        <path
           fill="url(#a)"
           d="m 45.053,38.909 a 20.203,7.4751 0 1 1 -40.406,0 20.203,7.4751 0 1 1 40.406,0 z"
           transform="matrix(1,0,0,1.2432,0,-10.272)"
           id="path1290"
           style="fill:url(#a)" />
        <path
           fill="url(#b)"
           stroke="#39396c"
           d="m 43.96,23.485 c 0,10.71 -8.682,19.392 -19.39,19.392 -10.71,0 -19.391,-8.682 -19.391,-19.392 -3e-4,-10.709 8.681,-19.39 19.391,-19.39 10.708,2e-4 19.39,8.681 19.39,19.39 z"
           id="path1292"
           style="fill:url(#b)" />
        <path
           fill="url(#c)"
           d="m 30.709,15.271 a 12.93,9.2934 0 1 1 -25.86,0 12.93,9.2934 0 1 1 25.86,0 z"
           opacity="0.42"
           transform="matrix(0.83594,0,0,1,9.8869,0)"
           id="path1294"
           style="fill:url(#c)" />
        <path
           fill-opacity="0.71"
           d="m 18.519,14.641 0.429,-0.647 -0.643,-0.484 0.214,1.131 m -0.356,13.336 -0.572,-1.132 -1.071,-0.242 -0.572,-1.535 -1.428,0.161 -1.213,-0.888 -1.286,1.131 v 0.178 c -0.389,-0.112 -0.867,-0.127 -1.214,-0.34 l -0.286,-0.808 v -0.889 l -0.8564,0.08 C 9.7361,23.127 9.8071,22.562 9.8791,21.996 H 9.3787 l -0.4993,0.647 -0.5003,0.242 -0.7143,-0.403 -0.0715,-0.89 0.1429,-0.97 1.0716,-0.807 h 0.8567 l 0.1425,-0.486 1.071,0.242 0.786,0.971 0.143,-1.618 1.357,-1.131 0.499,-1.212 1,-0.404 0.571,-0.808 1.285,-0.244 0.644,-0.969 h -1.929 l 1.214,-0.566 h 0.857 l 1.214,-0.405 0.143,-0.483 -0.429,-0.405 -0.5,-0.162 0.143,-0.484 -0.357,-0.728 -0.857,0.323 0.143,-0.646 -0.999,-0.566 -0.786,1.373 0.071,0.485 -0.785,0.324 -0.5,1.051 -0.214,-0.97 L 12.235,11.731 12.02,11.004 13.806,9.9524 14.592,9.2252 14.663,8.3364 14.235,8.0937 13.663,8.0126 13.307,8.9019 c 0,0 -0.598,0.117 -0.751,0.155 -1.961,1.8071 -5.9232,5.7081 -6.8437,13.071 0.0365,0.171 0.6673,1.161 0.6673,1.161 l 1.4995,0.889 1.4995,0.404 0.6434,0.809 0.999,0.727 0.571,-0.08 0.429,0.193 v 0.13 l -0.571,1.535 -0.429,0.647 0.143,0.324 -0.357,1.211 1.285,2.345 1.285,1.132 0.572,0.807 -0.072,1.698 0.429,0.969 -0.429,1.86 c 0,0 -0.033,-0.012 0.021,0.174 0.056,0.186 2.288,1.426 2.43,1.32 0.142,-0.107 0.263,-0.201 0.263,-0.201 l -0.143,-0.403 0.571,-0.566 0.215,-0.566 0.928,-0.325 0.714,-1.778 -0.214,-0.484 0.499,-0.727 1.072,-0.243 0.571,-1.294 -0.143,-1.615 0.857,-1.213 0.143,-1.212 c -1.172,-0.582 -2.335,-1.18 -3.499,-1.779 M 14.735,8.9829 14.377,9.8717 h 0.715 l 0.357,-0.8083 c 0.308,-0.2177 0.615,-0.4369 0.928,-0.6466 l 0.715,0.2428 c 0.475,0.3233 0.951,0.6466 1.428,0.9694 L 19.234,8.9829 18.448,8.6596 18.091,7.9319 16.734,7.7703 16.663,7.3659 16.02,7.528 15.734,8.0936 15.377,7.366 15.235,7.6893 15.306,8.4976 14.735,8.9829 M 26.517,5.9926 24.66,5.265 l -2.141,0.2423 -2.643,0.7271 -0.5,0.4854 1.643,1.1311 v 0.6466 l -0.643,0.6466 0.857,1.6987 0.57,-0.324 0.716,-1.1316 c 1.103,-0.341 2.092,-0.7276 3.141,-1.2126 l 0.857,-2.182 m -0.785,3.3136 -0.072,0.4845 0.501,0.3231 0.855,-0.5654 -0.427,-0.485 -0.572,0.3238 -0.285,-0.081 m 2.714,3.4766 -0.286,-0.729 -0.501,0.163 0.144,0.888 0.643,-0.322 m 14.969,7.799 -0.535,0.606 c -0.328,-0.386 -0.696,-0.711 -1.07,-1.051 l -0.822,0.121 -0.75,-0.848 v 1.049 l 0.643,0.487 0.428,0.484 0.571,-0.646 c 0.144,0.269 0.286,0.539 0.429,0.808 v 0.808 l -0.643,0.727 -1.179,0.809 -0.892,0.89 -0.571,-0.648 0.285,-0.727 -0.57,-0.647 -0.965,-2.061 -0.821,-0.928 -0.215,0.241 0.323,1.173 0.606,0.687 c 0.346,0.999 0.689,1.955 1.144,2.91 0.705,0 1.369,-0.075 2.07,-0.163 v 0.566 l -0.857,2.102 -0.786,0.888 -0.642,1.376 v 2.262 l 0.215,0.89 -0.357,0.403 -0.787,0.486 -0.821,0.686 0.679,0.768 -0.929,0.81 0.179,0.523 -1.393,1.578 h -0.928 l -0.786,0.485 h -0.5 v -0.647 l -0.213,-1.295 c -0.277,-0.811 -0.564,-1.617 -0.857,-2.423 0,-0.595 0.035,-1.184 0.071,-1.779 l 0.358,-0.807 -0.501,-0.971 0.036,-1.334 -0.679,-0.767 0.34,-1.111 -0.553,-0.627 h -0.965 l -0.321,-0.364 -0.964,0.607 -0.393,-0.446 -0.893,0.768 c -0.606,-0.687 -1.213,-1.374 -1.821,-2.061 l -0.713,-1.698 0.642,-0.969 -0.356,-0.404 0.784,-1.86 c 0.645,-0.802 1.318,-1.571 2,-2.343 l 1.214,-0.324 1.357,-0.161 0.928,0.243 1.321,1.332 0.465,-0.524 0.641,-0.081 1.215,0.404 h 0.929 l 0.642,-0.566 0.286,-0.404 -0.644,-0.404 -1.071,-0.08 c -0.298,-0.413 -0.574,-0.847 -0.927,-1.213 l -0.358,0.161 -0.143,1.052 -0.643,-0.728 -0.141,-0.809 -0.714,-0.564 H 32.24 l 0.715,0.807 -0.286,0.728 -0.571,0.161 0.357,-0.727 -0.644,-0.323 -0.57,-0.646 -1.072,0.241 -0.142,0.323 -0.643,0.405 -0.357,0.889 -0.892,0.444 -0.394,-0.444 h -0.427 v -1.455 l 0.928,-0.486 h 0.714 l -0.144,-0.565 -0.57,-0.566 0.963,-0.202 0.536,-0.606 0.428,-0.728 h 0.786 l -0.215,-0.565 0.501,-0.323 v 0.647 l 1.071,0.241 1.07,-0.888 0.072,-0.405 0.928,-0.646 c -0.336,0.042 -0.672,0.072 -1,0.162 v -0.728 l 0.357,-0.8087 h -0.357 l -0.784,0.7272 -0.215,0.4045 0.215,0.566 -0.358,0.969 -0.571,-0.323 -0.499,-0.565 -0.786,0.565 -0.286,-1.293 1.356,-0.8886 V 8.9018 l 0.858,-0.5655 1.356,-0.3238 0.929,0.3238 1.713,0.3233 -0.427,0.4845 h -0.929 l 0.929,0.9697 0.713,-0.8076 0.217,-0.3554 c 0,0 2.738,2.454 4.303,5.138 1.565,2.685 2.299,5.85 2.299,6.493 z M 17.305,6.9618 17.662,6.639 18.377,6.4773 c 0.489,-0.238 0.98,-0.3982 1.499,-0.5661 l -0.285,-0.485 -0.922,0.1324 -0.435,0.4342 -0.718,0.1041 -0.639,0.2998 -0.31,0.1501 -0.19,0.2538 0.928,0.1612 m -0.714,2.6674 0.714,0.4848 h 0.572 V 9.5486 L 17.163,9.2253 16.591,9.6292 m 12.14,2.9908 -0.143,0.97 0.785,-0.162 0.571,-0.565 -0.5,-0.485 c -0.167,-0.447 -0.36,-0.865 -0.57,-1.293 h -0.428 v 0.484 l 0.285,0.323 v 0.728"
           id="path1296" />
        <path
           fill="url(#d)"
           d="m 18.317,14.439 0.429,-0.647 -0.643,-0.484 0.214,1.131 M 14.533,8.7811 14.175,9.6699 H 14.89 L 15.247,8.8616 C 15.555,8.6438 15.862,8.4247 16.175,8.215 l 0.715,0.2428 c 0.475,0.3233 0.951,0.6466 1.427,0.9694 L 19.032,8.7811 18.246,8.4578 17.889,7.7301 16.532,7.5684 16.461,7.1641 15.818,7.3262 15.532,7.8918 15.175,7.1642 15.033,7.4875 15.104,8.2958 14.533,8.7811 m 3.427,18.994 -0.571,-1.132 -1.071,-0.242 -0.572,-1.535 -1.428,0.161 -1.213,-0.888 -1.286,1.131 v 0.178 c -0.389,-0.112 -0.867,-0.127 -1.214,-0.34 l -0.286,-0.808 v -0.889 l -0.8564,0.08 c 0.0715,-0.566 0.1424,-1.131 0.2144,-1.697 H 9.1767 l -0.4993,0.647 -0.5003,0.241 -0.7143,-0.402 -0.0715,-0.89 0.1429,-0.97 1.0716,-0.808 h 0.8567 l 0.1424,-0.485 1.0711,0.242 0.786,0.971 0.143,-1.618 1.357,-1.131 0.499,-1.212 1,-0.404 0.571,-0.808 1.285,-0.244 0.644,-0.969 h -1.929 l 1.214,-0.566 h 0.857 l 1.214,-0.405 0.143,-0.483 -0.429,-0.405 -0.5,-0.162 0.143,-0.485 -0.357,-0.727 -0.857,0.323 0.143,-0.646 -1,-0.5665 -0.785,1.3735 0.071,0.485 -0.785,0.324 -0.5,1.051 -0.214,-0.97 -1.357,-0.566 -0.215,-0.727 L 13.604,9.7505 14.389,9.0233 14.461,8.1345 14.033,7.8917 13.461,7.8107 13.105,8.7 c 0,0 -0.598,0.117 -0.751,0.1549 -1.961,1.8072 -5.9232,5.7082 -6.8437,13.071 0.0365,0.171 0.6672,1.161 0.6672,1.161 l 1.4995,0.889 1.4995,0.404 0.6433,0.809 0.9992,0.727 0.571,-0.08 0.429,0.193 v 0.13 l -0.571,1.535 -0.429,0.647 0.143,0.324 -0.357,1.211 1.285,2.345 1.285,1.132 0.572,0.807 -0.072,1.698 0.429,0.969 -0.429,1.86 c 0,0 -0.033,-0.012 0.021,0.174 0.056,0.186 2.288,1.426 2.43,1.32 0.142,-0.107 0.263,-0.201 0.263,-0.201 l -0.143,-0.403 0.571,-0.566 0.215,-0.566 0.928,-0.325 0.714,-1.778 -0.214,-0.484 0.499,-0.727 1.072,-0.243 0.571,-1.294 -0.143,-1.615 0.857,-1.213 0.143,-1.212 c -1.172,-0.582 -2.335,-1.18 -3.499,-1.779 m 8.355,-21.984 -1.857,-0.7276 -2.141,0.2422 -2.643,0.7272 -0.5,0.4854 1.643,1.1311 v 0.6466 l -0.643,0.6466 0.857,1.6987 0.57,-0.324 0.716,-1.1316 C 23.42,8.8444 24.409,8.4579 25.458,7.9729 L 26.315,5.7908 M 25.53,9.1045 25.458,9.589 25.959,9.9123 26.814,9.3467 26.387,8.8617 25.815,9.1855 25.53,9.1045 m 17.683,11.276 -0.535,0.606 c -0.328,-0.386 -0.696,-0.711 -1.07,-1.051 l -0.822,0.121 -0.75,-0.848 v 1.049 l 0.643,0.487 0.428,0.484 0.571,-0.646 c 0.144,0.269 0.286,0.539 0.429,0.808 v 0.808 l -0.643,0.727 -1.179,0.809 -0.892,0.89 -0.571,-0.648 0.285,-0.727 -0.57,-0.647 -0.965,-2.061 -0.821,-0.928 -0.215,0.241 0.323,1.173 0.606,0.687 c 0.346,0.999 0.689,1.955 1.144,2.91 0.705,0 1.369,-0.075 2.07,-0.163 v 0.566 l -0.857,2.102 -0.786,0.888 -0.642,1.376 v 2.262 l 0.215,0.89 -0.357,0.403 -0.787,0.486 -0.821,0.686 0.679,0.768 -0.929,0.81 0.179,0.523 -1.393,1.578 h -0.928 l -0.786,0.485 h -0.5 v -0.647 l -0.213,-1.295 c -0.277,-0.811 -0.564,-1.617 -0.857,-2.423 0,-0.595 0.035,-1.184 0.071,-1.779 l 0.358,-0.807 -0.501,-0.971 0.036,-1.334 -0.679,-0.767 0.34,-1.111 -0.553,-0.627 h -0.965 l -0.321,-0.364 -0.964,0.607 -0.393,-0.446 -0.893,0.768 c -0.606,-0.687 -1.213,-1.374 -1.821,-2.061 l -0.713,-1.698 0.642,-0.969 -0.357,-0.404 0.785,-1.86 c 0.645,-0.802 1.318,-1.571 2,-2.343 l 1.214,-0.324 1.357,-0.161 0.928,0.243 1.321,1.332 0.465,-0.524 0.641,-0.081 1.215,0.404 h 0.928 l 0.643,-0.566 0.286,-0.404 -0.644,-0.404 -1.071,-0.08 c -0.298,-0.413 -0.574,-0.847 -0.927,-1.213 l -0.358,0.161 -0.143,1.052 -0.643,-0.728 -0.141,-0.809 -0.714,-0.564 h -0.287 l 0.715,0.807 -0.286,0.728 -0.571,0.161 0.357,-0.727 -0.644,-0.323 -0.57,-0.646 -1.072,0.241 -0.142,0.323 -0.643,0.405 -0.357,0.889 -0.892,0.444 -0.394,-0.444 h -0.427 v -1.455 l 0.928,-0.486 h 0.714 l -0.144,-0.565 -0.57,-0.566 0.963,-0.202 0.536,-0.606 0.428,-0.728 h 0.786 l -0.215,-0.565 0.501,-0.323 v 0.646 l 1.071,0.242 1.07,-0.888 0.072,-0.405 0.928,-0.646 c -0.336,0.042 -0.672,0.072 -1,0.162 V 9.8321 L 33.537,9.0238 H 33.18 l -0.784,0.7272 -0.215,0.4045 0.215,0.566 -0.358,0.969 -0.571,-0.323 -0.499,-0.565 -0.786,0.565 -0.286,-1.293 1.356,-0.8886 V 8.7005 L 32.11,8.135 33.466,7.8112 34.395,8.135 36.108,8.4583 35.681,8.9428 h -0.929 l 0.929,0.9699 0.713,-0.8078 0.217,-0.3555 c 0,0 2.738,2.4541 4.303,5.1381 1.565,2.685 2.299,5.85 2.299,6.493 z M 17.103,6.7605 17.46,6.4377 18.175,6.276 c 0.489,-0.2379 0.98,-0.3981 1.499,-0.566 l -0.285,-0.485 -0.922,0.1324 -0.435,0.4341 -0.719,0.1042 -0.638,0.2998 -0.31,0.1501 -0.19,0.2537 0.928,0.1612 m -0.714,2.6675 0.714,0.485 h 0.572 V 9.3474 L 16.961,9.0241 16.389,9.428 m 12.14,2.9908 -0.143,0.97 0.785,-0.162 0.571,-0.565 -0.5,-0.485 c -0.167,-0.447 -0.36,-0.865 -0.57,-1.293 h -0.428 v 0.484 l 0.285,0.323 v 0.728 m -0.285,0.163 -0.286,-0.729 -0.501,0.163 0.144,0.888 0.643,-0.322"
           id="path1298"
           style="fill:url(#d)" />
        <path
           fill="none"
           stroke="url(#e)"
           d="m 42.975,23.486 c 0,10.165 -8.241,18.406 -18.406,18.406 C 14.404,41.892 6.163,33.651 6.163,23.486 6.1634,13.32 14.404,5.08 24.569,5.08 34.734,5.0799 42.975,13.32 42.975,23.486 Z"
           id="path1300"
           style="stroke:url(#e)" />
      </g>
      <text
         xml:space="preserve"
         style="font-size:10.5833px;line-height:1.25;font-family:Shne;-inkscape-font-specification:Shne;letter-spacing:1.05833px;fill:#d7f4e3;fill-opacity:1;stroke-width:0.264583"
         id="text5994"
         transform="translate(-426.34882,21.305698)"><textPath
           xlink:href="#path19124"
           id="textPath19502"><tspan
             style="font-style:normal;font-variant:normal;font-weight:bold;font-stretch:normal;font-family:Ubuntu;-inkscape-font-specification:'Ubuntu Bold';fill:#d7f4e3;fill-opacity:1;stroke-width:0.264583"
             id="tspan5996">WEB APP</tspan></textPath></text>
    </g>
    <g
       id="g93780"
       transform="matrix(0.79561638,0,0,0.79561638,-44.652676,84.145477)"
       inkscape:export-filename="/home/dognew/Projetos/pi-2023-altismo/sources/arts/uml-project.png"
       inkscape:export-xdpi="100"
       inkscape:export-ydpi="100">
      <g
         id="tux"
         transform="matrix(-0.26458333,0,0,0.26458333,158.04576,74.156582)">
        <g
           id="body">
          <path
             id="body_base"
             fill="#020204"
             d="m 106.95,0 c -6,0 -12.02,1.18 -17.46,4.12 -5.78,3.11 -10.52,8.09 -13.43,13.97 -2.92,5.88 -4.06,12.16 -4.24,19.08 -0.33,13.14 0.3,26.92 1.29,39.41 0.26,3.8 0.74,6.02 0.25,9.93 -1.62,8.3 -8.88,13.88 -12.76,21.17 -4.27,8.04 -6.07,17.13 -9.29,25.65 -2.95,7.79 -7.09,15.1 -9.88,22.95 -3.91,10.97 -5.08,23.03 -2.5,34.39 1.97,8.66 6.08,16.78 11.62,23.73 -0.8,1.44 -1.58,2.91 -2.4,4.34 -2.57,4.43 -5.71,8.64 -7.17,13.55 -0.73,2.45 -1.02,5.07 -0.55,7.59 0.47,2.52 1.75,4.93 3.75,6.53 1.31,1.04 2.9,1.72 4.53,2.1 1.63,0.37 3.32,0.46 5,0.43 6.37,-0.14 12.55,-2.07 18.71,-3.69 3.66,-0.96 7.34,-1.81 11.03,-2.58 13.14,-2.69 27.8,-1.61 39.99,0.15 4.13,0.63 8.23,1.44 12.29,2.43 6.36,1.54 12.69,3.5 19.23,3.69 1.72,0.05 3.46,-0.03 5.14,-0.4 1.68,-0.38 3.31,-1.06 4.65,-2.13 2.01,-1.6 3.29,-4.02 3.76,-6.54 0.47,-2.52 0.18,-5.15 -0.56,-7.61 -1.48,-4.92 -4.65,-9.11 -7.27,-13.52 -1.04,-1.75 -2,-3.53 -3.03,-5.28 7.9,-8.87 14.26,-19.13 17.94,-30.4 4.01,-12.3 4.75,-25.55 3.06,-38.38 -1.69,-12.83 -5.76,-25.27 -11.11,-37.05 -6.72,-14.76 -12.37,-20.1 -16.47,-33.07 -4.42,-14.02 -0.77,-30.61 -4.06,-43.32 -1.17,-4.32 -3.04,-8.45 -5.45,-12.23 -2.82,-4.43 -6.4,-8.39 -10.65,-11.47 C 124.13,2.62 115.61,0 106.95,0 Z" />
          <path
             id="belly"
             fill="#fdfdfb"
             d="m 83.13,74 c -0.9,1.13 -1.48,2.49 -1.84,3.89 -0.35,1.4 -0.48,2.85 -0.54,4.3 -0.11,2.89 0.07,5.83 -0.7,8.62 -0.82,2.98 -2.65,5.57 -4.44,8.08 -3.11,4.36 -6.25,8.84 -7.78,13.97 -0.93,3.1 -1.24,6.39 -0.91,9.62 -3.47,5.1 -6.48,10.53 -8.98,16.18 -3.78,8.57 -6.37,17.69 -7.28,27.01 -1.12,11.41 0.34,23.15 4.85,33.69 3.25,7.63 8.11,14.6 14.38,20.04 3.18,2.76 6.72,5.11 10.5,6.97 13.11,6.45 29.31,6.46 42.2,-0.41 6.74,-3.59 12.43,-8.84 17.91,-14.15 3.3,-3.2 6.59,-6.48 9.11,-10.32 4.85,-7.41 6.54,-16.41 7.59,-25.2 1.83,-15.36 1.89,-31.6 -4.85,-45.53 -2.32,-4.8 -5.41,-9.22 -9.12,-13.05 -0.98,-6.7 -2.93,-13.27 -5.76,-19.42 -2.05,-4.45 -4.54,-8.68 -6.44,-13.18 -0.78,-1.85 -1.46,-3.75 -2.32,-5.56 -0.87,-1.81 -1.93,-3.55 -3.39,-4.94 -1.48,-1.42 -3.33,-2.43 -5.28,-3.07 -1.95,-0.65 -4.01,-0.94 -6.06,-1.04 -4.11,-0.21 -8.22,0.33 -12.33,0.16 -3.27,-0.13 -6.53,-0.7 -9.8,-0.51 -1.63,0.1 -3.26,0.39 -4.78,1.01 -1.52,0.61 -2.92,1.56 -3.94,2.84 z" />
          <g
             id="body_self_shadows">
            <path
               id="belly_shadow_left"
               opacity="0.25"
               fill="url(#fill_belly_shadow_left)"
               filter="url(#blur_belly_shadow_left)"
               clip-path="url(#clip_body)"
               d="m 68.67,115.18 c 0.87,1.31 -0.55,5.84 19.86,2.94 0,0 -3.59,0.39 -7.12,1.21 -5.49,1.84 -10.27,3.89 -13.97,6.61 -3.65,2.7 -6.33,6.21 -9.68,9.22 0,0 5.43,-9.92 6.78,-12.91 1.36,-2.99 -0.22,-2.85 0.85,-7.25 1.07,-4.4 3.69,-8.63 3.69,-8.63 0,0 -2.14,6.22 -0.41,8.81 z"
               style="fill:url(#fill_belly_shadow_left)" />
            <path
               id="belly_shadow_right"
               opacity="0.42"
               fill="url(#fill_belly_shadow_right)"
               filter="url(#blur_belly_shadow_right)"
               clip-path="url(#clip_body)"
               d="m 134.28,113.99 c -4.16,2.9 -6.6,2.56 -11.64,3.12 -5.05,0.57 -18.7,0.36 -18.7,0.36 0,0 1.97,-0.03 6.36,0.78 4.38,0.82 13.31,1.6 18.34,3.51 5.04,1.92 6.87,2.47 9.93,4.4 4.35,2.75 7.55,7.06 11.71,10.08 0,0 0.2,-4 -1.48,-6.99 -1.68,-2.99 -6.2,-7.7 -7.53,-12.1 -1.32,-4.4 -1.96,-13.04 -1.96,-13.04 0,0 -0.88,6.99 -5.03,9.88 z"
               style="fill:url(#fill_belly_shadow_right)" />
            <path
               id="belly_shadow_middle"
               opacity="0.2"
               fill="url(#fill_belly_shadow_middle)"
               filter="url(#blur_belly_shadow_middle)"
               clip-path="url(#clip_body)"
               d="m 95.17,107.81 c -0.16,1.25 -0.36,2.5 -0.6,3.74 -0.12,0.61 -0.26,1.22 -0.48,1.8 -0.23,0.58 -0.56,1.14 -1.02,1.55 -0.41,0.37 -0.9,0.62 -1.4,0.85 -1.94,0.88 -4.01,1.47 -6.12,1.74 0.84,0.06 1.68,0.14 2.53,0.23 0.53,0.06 1.06,0.12 1.57,0.25 0.52,0.14 1.03,0.34 1.46,0.65 0.47,0.35 0.84,0.82 1.12,1.34 0.55,1.02 0.73,2.2 0.83,3.37 0.13,1.48 0.14,2.98 0.03,4.46 0.1,-0.99 0.31,-1.98 0.62,-2.92 0.57,-1.72 1.47,-3.32 2.69,-4.65 0.49,-0.52 1.02,-1.01 1.6,-1.42 1.79,-1.26 4.07,-1.81 6.24,-1.51 -2.21,0.09 -4.44,-0.6 -6.2,-1.93 -0.9,-0.68 -1.68,-1.52 -2.22,-2.5 -0.84,-1.52 -1.08,-3.37 -0.65,-5.05 z"
               style="fill:url(#fill_belly_shadow_middle)" />
            <path
               id="belly_shadow_lower"
               opacity="0.11"
               fill="#000000"
               filter="url(#blur_belly_shadow_lower)"
               clip-path="url(#clip_body)"
               d="m 89.85,137.14 c -1.06,4.03 -1.79,8.15 -2.17,12.31 -0.55,5.87 -0.42,11.78 -0.74,17.67 -0.26,4.99 -0.85,10.04 0.02,14.97 0.41,2.35 1.15,4.64 2.2,6.78 0.16,-0.82 0.29,-1.64 0.36,-2.47 0.37,-4 -0.3,-8.01 -0.53,-12.01 -0.4,-7.02 0.57,-14.04 0.97,-21.06 0.3,-5.39 0.27,-10.8 -0.11,-16.19 z" />
          </g>
          <g
             id="body_glare">
            <path
               id="belly_glare"
               opacity="0.75"
               fill="#7c7c7c"
               filter="url(#blur_belly_glare)"
               clip-path="url(#clip_body)"
               d="m 160.08,131.23 c 1.03,-0.16 7.34,5.21 6.48,7.21 -0.86,1.99 -2.49,0.79 -3.65,0.8 -1.16,0.02 -4.33,1.46 -4.86,0.55 -0.54,-0.91 1.4,-3.03 2.41,-4.81 0.82,-1.43 -1.4,-3.59 -0.38,-3.75 z" />
            <path
               id="head_glare"
               fill="#7c7c7c"
               filter="url(#blur_head_glare)"
               clip-path="url(#clip_body)"
               d="m 121.52,11.12 c -2.21,1.56 -1.25,3.51 -0.3,5.46 0.95,1.96 -2.09,7.59 -2.12,7.83 -0.03,0.24 5.98,-2.85 7.62,-4.87 1.94,-2.37 6.83,3.22 6.56,2.37 0.01,-1.52 -9.55,-12.34 -11.76,-10.79 z" />
            <path
               id="neck_glare"
               fill="#838384"
               filter="url(#blur_neck_glare)"
               clip-path="url(#clip_body)"
               d="m 138.27,76.63 c -1.86,1.7 0.88,4.25 2.17,7.24 0.81,1.86 3.04,4.49 5.2,4.07 1.63,-0.32 2.63,-2.66 2.48,-4.3 -0.3,-3.18 -2.98,-3.93 -4.93,-5.02 -1.54,-0.86 -3.61,-3.18 -4.92,-1.99 z" />
          </g>
        </g>
        <g
           id="wings">
          <g
             id="wing_left">
            <path
               id="wing_left_base"
               fill="#020204"
               d="m 63.98,100.91 c -6.1,6.92 -12.37,13.63 -15.81,21.12 -1.71,3.8 -2.51,7.93 -3.68,11.93 -1.32,4.54 -3.12,8.94 -5.14,13.22 -1.87,3.95 -3.93,7.81 -5.98,11.66 -1.5,2.81 -3.02,5.67 -3.54,8.81 -0.41,2.48 -0.18,5.04 0.46,7.47 0.63,2.43 1.64,4.75 2.79,6.98 4.88,9.55 12.21,17.77 20.89,24.07 3.94,2.85 8.15,5.32 12.58,7.35 2.4,1.09 4.92,2.07 7.56,2.11 1.32,0.03 2.65,-0.19 3.86,-0.72 1.2,-0.53 2.28,-1.38 3,-2.49 0.88,-1.36 1.18,-3.05 1,-4.66 -0.18,-1.61 -0.81,-3.15 -1.65,-4.53 -2.06,-3.38 -5.31,-5.83 -8.44,-8.25 -6.76,-5.23 -13.29,-10.76 -19.55,-16.58 -1.76,-1.65 -3.53,-3.34 -4.76,-5.42 -1.2,-2.02 -1.85,-4.32 -2.29,-6.63 -1.21,-6.33 -0.9,-12.99 1.25,-19.07 0.85,-2.38 1.96,-4.65 3.04,-6.93 1.86,-3.95 3.62,-7.98 6.07,-11.6 3.05,-4.51 7.13,-8.33 9.61,-13.17 2.1,-4.09 2.95,-8.68 3.76,-13.2 0.64,-3.54 1.85,-7 2.47,-10.54 -1.21,2.3 -5.11,6.07 -7.5,9.07 z" />
            <path
               id="wing_left_glare"
               opacity="0.95"
               fill="#7c7c7c"
               filter="url(#blur_wing_left_glare)"
               clip-path="url(#clip_wing_left)"
               d="m 56.96,126.1 c -2,1.84 -3.73,3.97 -5.13,6.31 -2.3,3.84 -3.65,8.16 -5.33,12.31 -1.24,3.09 -2.69,6.2 -2.86,9.53 -0.09,1.71 0.16,3.42 0.22,5.13 0.06,1.71 -0.1,3.49 -0.94,4.98 -0.7,1.25 -1.87,2.23 -3.22,2.71 1.83,0.61 3.45,1.79 4.6,3.33 0.96,1.3 1.58,2.81 2.41,4.18 0.68,1.12 1.51,2.16 2.54,2.97 1.02,0.82 2.25,1.4 3.54,1.56 1.79,0.23 3.65,-0.36 4.97,-1.58 -1.66,-15.55 -0.14,-31.42 4.44,-46.37 0.29,-0.94 0.59,-1.89 0.67,-2.87 0.07,-0.99 -0.12,-2.03 -0.72,-2.81 -0.31,-0.42 -0.74,-0.75 -1.23,-0.96 -0.48,-0.2 -1.02,-0.28 -1.54,-0.21 -0.52,0.06 -1.03,0.26 -1.45,0.57 -0.42,0.32 -0.76,0.74 -0.97,1.22 z" />
          </g>
          <g
             id="wing_right">
            <path
               id="wing_right_base"
               fill="#020204"
               d="m 162.76,127.12 c 5.24,4.22 8.57,10.59 9.6,17.24 0.8,5.18 0.28,10.51 -0.89,15.62 -1.17,5.12 -2.97,10.06 -4.77,15 -0.71,1.96 -1.43,3.95 -1.71,6.02 -0.29,2.08 -0.11,4.27 0.89,6.11 1.15,2.11 3.29,3.56 5.59,4.24 2.27,0.68 4.72,0.66 7.02,0.09 2.3,-0.57 6.17,-1.31 8.04,-2.77 4.75,-3.69 5.88,-10.1 7.01,-15.72 1.17,-5.87 0.6,-12.02 -0.43,-17.95 -1.41,-8.09 -3.78,-15.99 -6.79,-23.62 -2.22,-5.62 -5.06,-10.98 -8.44,-15.96 -3.32,-4.89 -8.02,-8.7 -11.5,-13.48 -1.21,-1.66 -2.66,-3.38 -3.84,-5.06 -2.56,-3.62 -1.98,-2.94 -3.57,-5.29 -1.15,-1.7 -2.97,-2.28 -4.88,-3.02 -1.92,-0.74 -4.06,-0.96 -6.04,-0.41 -2.6,0.73 -4.73,2.79 -5.86,5.24 -1.13,2.46 -1.33,5.28 -0.89,7.95 0.57,3.44 2.14,6.64 3.92,9.64 2,3.39 4.32,6.66 7.35,9.18 3.16,2.63 6.98,4.37 10.19,6.95 z" />
            <path
               id="wing_right_glare"
               fill="#838384"
               filter="url(#blur_wing_right_glare)"
               clip-path="url(#clip_wing_right)"
               d="m 150.42,118.99 c 0.42,0.4 0.86,0.81 1.31,1.19 3.22,2.63 4.93,5.58 8.2,8.16 5.34,4.22 10.75,11.5 11.8,18.15 0.82,5.19 -0.26,8.01 -1.58,14.12 -1.32,6.12 -5.06,14.78 -7.09,20.68 -0.8,2.35 1.64,1.38 1.32,3.86 -0.16,1.22 -0.18,2.45 -0.03,3.67 0.02,-0.23 0.03,-0.48 0.06,-0.71 0.39,-3.38 1.42,-6.63 2.55,-9.82 2.17,-6.13 4.66,-12.15 6.38,-18.45 1.72,-6.29 1.53,-10.82 0.63,-16.23 -1.13,-6.81 -5.09,-13.09 -10.69,-17.24 -3.97,-2.93 -8.64,-4.81 -12.86,-7.38 z" />
          </g>
        </g>
        <g
           id="feet">
          <g
             id="foot_left">
            <path
               id="foot_left_base"
               fill="url(#fill_foot_left_base)"
               d="m 34.98,175.33 c 1.38,-0.57 2.93,-0.68 4.39,-0.41 1.47,0.27 2.86,0.91 4.09,1.74 2.47,1.68 4.3,4.12 6.05,6.54 4.03,5.54 7.9,11.2 11.42,17.08 2.85,4.78 5.46,9.71 8.76,14.18 2.15,2.93 4.57,5.64 6.73,8.55 2.16,2.92 4.07,6.08 5.03,9.58 1.25,4.55 0.76,9.56 -1.4,13.75 -1.52,2.95 -3.86,5.48 -6.7,7.19 -2.84,1.71 -5.83,2.47 -9.15,2.47 -5.27,0 -10.42,-2.83 -15.32,-4.78 C 38.9,247.24 28.06,246 17.77,242.9 14.61,241.95 11.5,240.82 8.32,239.95 6.9,239.56 5.47,239.22 4.13,238.61 2.79,238.01 1.54,237.1 0.8,235.84 0.23,234.86 0,233.71 0,232.58 c 0,-1.14 0.28,-2.26 0.67,-3.32 0.77,-2.13 2.02,-4.06 2.86,-6.17 1.37,-3.44 1.62,-7.23 1.43,-10.93 -0.18,-3.69 -0.78,-7.36 -1.03,-11.05 -0.12,-1.65 -0.16,-3.32 0.16,-4.95 0.31,-1.62 1.01,-3.21 2.2,-4.35 1.1,-1.06 2.55,-1.69 4.05,-2 1.49,-0.31 3.03,-0.32 4.55,-0.29 1.52,0.03 3.05,0.12 4.57,-0.01 1.52,-0.12 3.05,-0.46 4.37,-1.22 1.26,-0.72 2.29,-1.79 3.14,-2.96 0.85,-1.17 1.54,-2.45 2.25,-3.72 0.7,-1.26 1.43,-2.52 2.36,-3.64 0.92,-1.12 2.06,-2.09 3.4,-2.64 z"
               style="fill:url(#fill_foot_left_base)" />
            <path
               id="foot_left_layer_1"
               fill="#d99a03"
               filter="url(#blur_foot_left_layer_1)"
               clip-path="url(#clip_foot_left)"
               d="m 37.16,177.7 c 1.25,-0.5 2.67,-0.56 3.98,-0.26 1.32,0.3 2.55,0.94 3.61,1.77 2.14,1.65 3.62,3.97 5.05,6.26 3.42,5.54 6.76,11.15 9.92,16.86 2.4,4.31 4.68,8.7 7.62,12.65 1.95,2.62 4.18,5.03 6.17,7.62 1.99,2.59 3.76,5.41 4.64,8.56 1.14,4.05 0.68,8.54 -1.28,12.26 -1.42,2.68 -3.58,4.96 -6.2,6.48 -2.61,1.52 -5.67,2.28 -8.69,2.14 -4.82,-0.22 -9.23,-2.63 -13.77,-4.26 -8.71,-3.16 -18.14,-3.59 -27.08,-6.05 -3.2,-0.87 -6.32,-2.03 -9.53,-2.84 -1.43,-0.36 -2.88,-0.66 -4.23,-1.23 -1.35,-0.57 -2.62,-1.45 -3.36,-2.72 -0.54,-0.95 -0.76,-2.06 -0.73,-3.15 0.04,-1.09 0.31,-2.17 0.7,-3.19 0.78,-2.04 2,-3.88 2.78,-5.92 1.19,-3.08 1.34,-6.47 1.12,-9.76 -0.22,-3.29 -0.8,-6.56 -1,-9.85 -0.08,-1.48 -0.1,-2.97 0.2,-4.41 0.3,-1.45 0.93,-2.85 1.98,-3.89 1.14,-1.13 2.7,-1.74 4.29,-1.99 1.58,-0.24 3.19,-0.13 4.78,0.01 1.6,0.14 3.2,0.32 4.8,0.23 1.6,-0.1 3.22,-0.49 4.54,-1.39 1.2,-0.81 2.1,-2 2.79,-3.27 0.69,-1.27 1.18,-2.64 1.71,-3.98 0.52,-1.35 1.09,-2.69 1.91,-3.89 0.82,-1.19 1.93,-2.24 3.28,-2.79 z" />
            <path
               id="foot_left_layer_2"
               fill="#f5bd0c"
               filter="url(#blur_foot_left_layer_2)"
               clip-path="url(#clip_foot_left)"
               d="m 35.99,174.57 c 1.22,-0.6 2.65,-0.72 3.98,-0.45 1.33,0.27 2.57,0.92 3.62,1.77 2.09,1.7 3.43,4.13 4.67,6.51 2.84,5.46 5.5,11.04 8.9,16.19 2.48,3.73 5.33,7.2 7.83,10.92 3.39,5.03 6.15,10.57 7.29,16.5 0.76,4 0.74,8.31 -1.18,11.9 -1.27,2.37 -3.32,4.31 -5.75,5.52 -2.42,1.22 -5.21,1.71 -7.92,1.47 -4.27,-0.37 -8.14,-2.47 -12.16,-3.94 -7.13,-2.59 -14.84,-3.22 -22.18,-5.18 -3.09,-0.82 -6.13,-1.89 -9.26,-2.54 -1.39,-0.29 -2.8,-0.5 -4.12,-1 -1.32,-0.5 -2.57,-1.33 -3.25,-2.55 -0.47,-0.86 -0.63,-1.86 -0.56,-2.84 0.07,-0.97 0.36,-1.92 0.74,-2.83 0.77,-1.8 1.9,-3.46 2.49,-5.32 0.88,-2.75 0.52,-5.72 -0.14,-8.53 -0.65,-2.8 -1.6,-5.55 -1.89,-8.41 -0.13,-1.27 -0.13,-2.57 0.17,-3.82 0.29,-1.25 0.88,-2.45 1.81,-3.34 1.2,-1.15 2.88,-1.73 4.56,-1.89 1.67,-0.16 3.35,0.06 5.01,0.3 1.66,0.24 3.34,0.5 5.01,0.42 1.68,-0.07 3.39,-0.51 4.7,-1.54 1.3,-1.02 2.12,-2.53 2.59,-4.09 0.47,-1.57 0.62,-3.2 0.81,-4.82 0.19,-1.62 0.43,-3.26 1.06,-4.77 0.63,-1.51 1.69,-2.9 3.17,-3.64 z" />
            <path
               id="foot_left_glare"
               fill="url(#fill_foot_left_glare)"
               filter="url(#blur_foot_left_glare)"
               clip-path="url(#clip_foot_left)"
               d="m 51.2,188.21 c 2.25,4.06 3.62,8.72 5.85,12.82 2.05,3.77 4.38,7.65 6.46,11.12 0.93,1.55 3.09,3.93 5.27,7.62 1.98,3.34 3.98,8.01 5.1,9.58 -0.64,-1.84 -1.96,-6.77 -3.54,-10.28 -1.47,-3.28 -3.19,-5.15 -4.24,-6.92 -2.08,-3.47 -4.33,-6.6 -6.47,-9.91 -2.95,-4.57 -5.2,-9.68 -8.43,-14.03 z"
               style="fill:url(#fill_foot_left_glare)" />
          </g>
          <g
             id="foot_right">
            <path
               id="foot_right_shadow"
               opacity="0.2"
               fill="url(#fill_foot_right_shadow)"
               filter="url(#blur_foot_right_shadow)"
               clip-path="url(#clip_body)"
               d="m 198.7,215.61 c -0.4,1.33 -1.02,2.62 -1.81,3.8 -1.75,2.59 -4.3,4.55 -6.84,6.35 -4.33,3.07 -8.85,5.89 -12.89,9.38 -2.7,2.34 -5.17,4.97 -7.45,7.73 -1.95,2.36 -3.79,4.84 -6.02,6.94 -2.25,2.12 -4.89,3.84 -7.74,4.77 -3.47,1.13 -7.13,1.08 -10.47,0.22 -2.34,-0.6 -4.63,-1.64 -6.08,-3.53 -1.45,-1.89 -1.92,-4.44 -2.09,-6.94 -0.3,-4.42 0.23,-8.93 0.71,-13.42 0.4,-3.73 0.77,-7.46 0.92,-11.18 0.27,-6.77 -0.18,-13.47 -1.09,-20.05 -0.16,-1.11 -0.32,-2.22 -0.23,-3.35 0.09,-1.14 0.47,-2.32 1.27,-3.2 0.74,-0.81 1.77,-1.29 2.79,-1.52 1.02,-0.24 2.06,-0.25 3.09,-0.28 2.43,-0.06 4.86,-0.21 7.25,0.01 1.51,0.13 2.99,0.41 4.49,0.55 2.51,0.24 5.12,0.12 7.64,-0.62 2.71,-0.8 5.29,-2.29 8.05,-2.7 1.13,-0.17 2.26,-0.15 3.36,0.01 1.12,0.15 2.24,0.46 3.1,1.15 0.66,0.52 1.14,1.23 1.51,1.99 0.56,1.14 0.9,2.39 1.1,3.68 0.17,1.14 0.24,2.31 0.53,3.41 0.48,1.81 1.58,3.35 2.89,4.6 1.32,1.25 2.85,2.24 4.39,3.22 1.53,0.97 3.07,1.93 4.7,2.73 0.77,0.38 1.56,0.72 2.29,1.15 0.74,0.44 1.42,0.97 1.91,1.67 0.66,0.95 0.92,2.2 0.72,3.43 z"
               style="fill:url(#fill_foot_right_shadow)" />
            <path
               id="foot_right_base"
               fill="url(#fill_foot_right_base)"
               d="m 213.47,222.92 c -2.26,2.68 -5.4,4.45 -8.53,6.05 -5.33,2.71 -10.86,5.1 -15.87,8.37 -3.36,2.19 -6.46,4.76 -9.36,7.53 -2.48,2.37 -4.83,4.9 -7.61,6.91 -2.81,2.03 -6.05,3.5 -9.48,4.01 -0.95,0.14 -1.9,0.21 -2.86,0.21 -3.24,0 -6.48,-0.78 -9.46,-2.08 -2.7,-1.17 -5.3,-2.86 -6.86,-5.36 -1.56,-2.52 -1.92,-5.59 -1.92,-8.56 -0.01,-5.23 0.96,-10.41 1.87,-15.57 0.76,-4.29 1.48,-8.58 1.95,-12.91 0.85,-7.86 0.84,-15.81 0.28,-23.71 -0.1,-1.32 -0.21,-2.65 -0.01,-3.96 0.2,-1.31 0.74,-2.62 1.74,-3.48 0.93,-0.8 2.17,-1.16 3.4,-1.22 1.22,-0.07 2.44,0.12 3.65,0.3 2.85,0.42 5.73,0.74 8.52,1.48 1.76,0.46 3.48,1.08 5.23,1.56 2.94,0.79 6.01,1.17 9.02,0.82 3.25,-0.38 6.41,-1.6 9.68,-1.52 1.34,0.03 2.67,0.28 3.95,0.69 1.3,0.41 2.59,1 3.55,1.98 0.73,0.74 1.24,1.67 1.62,2.64 0.57,1.44 0.88,2.98 1.01,4.52 0.11,1.37 0.09,2.76 0.35,4.11 0.43,2.21 1.6,4.24 3.04,5.97 1.45,1.74 3.18,3.21 4.91,4.66 1.73,1.45 3.46,2.89 5.32,4.16 0.87,0.6 1.77,1.16 2.6,1.81 0.83,0.66 1.59,1.42 2.11,2.34 0.45,0.81 0.69,1.72 0.69,2.65 0,0.52 -0.07,1.04 -0.23,1.56 -0.45,1.43 -1.28,2.82 -2.3,4.04 z"
               style="fill:url(#fill_foot_right_base)" />
            <path
               id="foot_right_layer_1"
               fill="#cd8907"
               filter="url(#blur_foot_right_layer_1)"
               clip-path="url(#clip_foot_right)"
               d="m 213.21,216.12 c -0.53,1.33 -1.28,2.58 -2.22,3.67 -2.07,2.42 -4.93,4.01 -7.78,5.44 -4.88,2.44 -9.92,4.58 -14.5,7.52 -3.06,1.97 -5.9,4.28 -8.55,6.78 -2.26,2.13 -4.41,4.41 -6.95,6.21 -2.57,1.83 -5.53,3.14 -8.65,3.6 -3.8,0.56 -7.72,-0.16 -11.25,-1.67 -2.46,-1.06 -4.84,-2.56 -6.27,-4.83 -1.42,-2.26 -1.75,-5.02 -1.75,-7.69 -0.02,-4.71 0.87,-9.37 1.71,-14 0.7,-3.85 1.36,-7.71 1.78,-11.6 0.76,-7.08 0.73,-14.22 0.25,-21.32 -0.08,-1.19 -0.17,-2.39 0.01,-3.57 0.18,-1.18 0.67,-2.35 1.57,-3.13 0.85,-0.73 1.99,-1.05 3.11,-1.1 1.11,-0.06 2.22,0.12 3.33,0.28 2.61,0.38 5.23,0.67 7.78,1.33 1.61,0.42 3.18,0.98 4.78,1.4 2.68,0.72 5.49,1.06 8.24,0.74 2.97,-0.34 5.85,-1.44 8.83,-1.37 1.23,0.03 2.44,0.26 3.61,0.62 1.19,0.37 2.37,0.9 3.25,1.78 0.66,0.67 1.11,1.51 1.48,2.38 0.53,1.29 0.89,2.67 0.91,4.07 0.03,1.46 -0.28,2.92 -0.09,4.37 0.16,1.17 0.66,2.28 1.3,3.28 0.63,1 1.4,1.91 2.17,2.81 1.48,1.75 2.96,3.53 4.82,4.87 2.11,1.53 4.62,2.43 6.8,3.85 0.65,0.43 1.28,0.91 1.74,1.54 0.78,1.06 0.98,2.5 0.54,3.74 z" />
            <path
               id="foot_right_layer_2"
               fill="#f5c021"
               filter="url(#blur_foot_right_layer_2)"
               clip-path="url(#clip_foot_right)"
               d="m 212.91,214.61 c -0.6,1.35 -1.37,2.6 -2.28,3.71 -2.12,2.58 -4.99,4.35 -8,5.49 -4.97,1.88 -10.39,2.13 -15.26,4.27 -2.97,1.3 -5.65,3.26 -8.36,5.12 -2.18,1.49 -4.42,2.94 -6.82,3.98 -2.72,1.19 -5.6,1.85 -8.5,2.32 -1.84,0.29 -3.71,0.51 -5.57,0.41 -1.86,-0.1 -3.72,-0.54 -5.37,-1.49 -1.24,-0.72 -2.36,-1.75 -3.03,-3.1 -0.73,-1.49 -0.86,-3.24 -0.85,-4.94 0.05,-4.5 1.02,-8.96 0.99,-13.47 -0.03,-3.93 -0.81,-7.8 -1.03,-11.72 -0.43,-7.54 1.19,-15.2 -0.24,-22.59 -0.22,-1.19 -0.53,-2.37 -0.52,-3.58 0.01,-0.6 0.1,-1.21 0.31,-1.77 0.22,-0.55 0.56,-1.06 1.01,-1.42 0.39,-0.29 0.84,-0.47 1.31,-0.56 0.46,-0.08 0.94,-0.06 1.41,0.01 0.93,0.15 1.82,0.51 2.73,0.78 2.6,0.78 5.35,0.76 8,1.35 1.66,0.36 3.26,0.97 4.91,1.41 2.75,0.76 5.63,1.08 8.46,0.75 3.04,-0.36 6.01,-1.46 9.07,-1.38 1.26,0.03 2.5,0.26 3.71,0.62 1.21,0.36 2.42,0.87 3.34,1.8 0.65,0.67 1.13,1.52 1.51,2.4 0.57,1.29 0.96,2.69 0.95,4.11 -0.01,0.74 -0.12,1.47 -0.19,2.21 -0.06,0.74 -0.08,1.49 0.09,2.2 0.18,0.72 0.55,1.37 0.97,1.96 0.42,0.59 0.9,1.12 1.34,1.7 1.22,1.61 2.1,3.49 3.05,5.3 0.95,1.81 2.02,3.6 3.53,4.91 2.05,1.77 4.7,2.48 6.99,3.89 0.67,0.41 1.31,0.89 1.78,1.55 0.38,0.52 0.63,1.15 0.73,1.81 0.09,0.65 0.03,1.34 -0.17,1.96 z" />
            <path
               id="foot_right_glare"
               fill="url(#fill_foot_right_glare)"
               filter="url(#blur_foot_right_glare)"
               clip-path="url(#clip_foot_right)"
               d="m 148.08,181.58 c 2.82,-0.76 5.22,1.38 7.27,2.99 1.32,1.13 3.24,0.85 4.86,0.9 2.69,-0.09 5.36,0.45 8.05,0.12 5.3,-0.45 10.49,-1.75 15.81,-1.97 2.54,-0.16 5.4,-0.31 7.59,1.17 0.89,0.62 2.2,3.23 3.07,2.25 -0.36,-2.74 -2.39,-5.39 -5.11,-6.12 -2.14,-0.34 -4.3,0.25 -6.46,0.06 -6.39,-0.15 -12.75,-1.34 -19.16,-1 -4.46,0.04 -8.91,-0.17 -13.37,-0.34 -1.75,-0.36 -2.37,1.19 -3.32,1.79 0.25,0.19 0.34,0.25 0.77,0.15 z"
               style="fill:url(#fill_foot_right_glare)" />
          </g>
        </g>
        <g
           id="wing_tip_right">
          <g
             id="wing_tip_right_shadow">
            <path
               id="wing_tip_right_shadow_lower"
               opacity="0.35"
               fill="url(#fill_wing_tip_right_shadow_lower)"
               filter="url(#blur_wing_tip_right_shadow_lower)"
               clip-path="url(#clip_foot_right)"
               d="m 185.49,187.61 c -0.48,-0.95 -1.36,-1.66 -2.35,-2.07 -0.98,-0.41 -2.06,-0.55 -3.13,-0.54 -2.13,0.02 -4.25,0.57 -6.38,0.39 -1.79,-0.16 -3.49,-0.83 -5.24,-1.26 -1.81,-0.44 -3.73,-0.61 -5.52,-0.12 -1.92,0.52 -3.61,1.81 -4.67,3.49 -0.94,1.48 -1.38,3.23 -1.52,4.98 -0.14,1.75 0.01,3.5 0.19,5.25 0.12,1.26 0.27,2.52 0.57,3.75 0.31,1.23 0.78,2.43 1.52,3.46 1.07,1.48 2.66,2.54 4.37,3.17 2.8,1.03 5.98,0.98 8.73,-0.15 4.88,-2.12 9.01,-5.92 11.52,-10.6 0.91,-1.68 1.61,-3.47 2.06,-5.31 0.18,-0.74 0.32,-1.49 0.32,-2.25 0.01,-0.75 -0.12,-1.52 -0.47,-2.19 z"
               style="fill:url(#fill_wing_tip_right_shadow_lower)" />
            <path
               id="wing_tip_right_shadow_upper"
               opacity="0.35"
               fill="url(#fill_wing_tip_right_shadow_upper)"
               filter="url(#blur_wing_tip_right_shadow_upper)"
               clip-path="url(#clip_foot_right)"
               d="m 185.49,184.89 c -0.48,-0.69 -1.36,-1.2 -2.35,-1.5 -0.98,-0.3 -2.06,-0.39 -3.13,-0.39 -2.13,0.02 -4.25,0.42 -6.38,0.28 -1.79,-0.11 -3.49,-0.6 -5.24,-0.9 -1.81,-0.32 -3.73,-0.45 -5.52,-0.09 -1.92,0.37 -3.61,1.3 -4.67,2.52 -0.94,1.07 -1.38,2.34 -1.52,3.6 -0.14,1.26 0.01,2.53 0.19,3.79 0.12,0.91 0.27,1.83 0.57,2.72 0.31,0.89 0.78,1.76 1.52,2.5 1.07,1.07 2.66,1.83 4.37,2.29 2.8,0.75 5.98,0.71 8.73,-0.11 4.88,-1.53 9.01,-4.28 11.52,-7.66 0.91,-1.22 1.61,-2.51 2.06,-3.84 0.18,-0.54 0.32,-1.08 0.32,-1.62 0.01,-0.55 -0.12,-1.11 -0.47,-1.59 z"
               style="fill:url(#fill_wing_tip_right_shadow_upper)" />
          </g>
          <path
             id="wing_tip_right_base"
             fill="#020204"
             d="m 189.55,178.72 c -0.35,-0.95 -0.97,-1.79 -1.72,-2.47 -0.75,-0.68 -1.64,-1.2 -2.57,-1.6 -1.86,-0.79 -3.89,-1.09 -5.89,-1.46 -1.87,-0.35 -3.74,-0.78 -5.62,-1.1 -1.96,-0.33 -3.98,-0.55 -5.92,-0.11 -1.69,0.38 -3.26,1.26 -4.54,2.43 -1.28,1.17 -2.28,2.63 -3,4.21 -1.27,2.79 -1.67,5.92 -1.43,8.97 0.18,2.27 0.76,4.61 2.25,6.32 1.21,1.39 2.92,2.26 4.68,2.78 3.04,0.9 6.35,0.85 9.36,-0.13 4.97,-1.67 9.37,-4.98 12.35,-9.29 0.98,-1.43 1.82,-2.98 2.2,-4.66 0.29,-1.28 0.3,-2.66 -0.15,-3.89 z" />
          <g
             id="wing_tip_right_glare">
            <defs
               id="defs2082">
              <path
                 id="path2353"
                 d="m 168.89,171.07 c -0.47,0.03 -0.93,0.08 -1.4,0.17 -2.99,0.53 -5.73,2.42 -7.27,5.03 -1.09,1.85 -1.58,4.03 -1.43,6.17 0.07,-1.5 0.46,-2.97 1.19,-4.28 1.23,-2.23 3.47,-3.91 5.98,-4.37 1.54,-0.28 3.13,-0.11 4.68,0.08 1.5,0.19 3,0.39 4.47,0.7 2.28,0.5 4.53,1.26 6.44,2.59 0.44,0.31 0.86,0.66 1.21,1.08 0.35,0.41 0.62,0.89 0.73,1.42 0.15,0.78 -0.07,1.6 -0.46,2.29 -0.39,0.7 -0.92,1.3 -1.48,1.86 -0.46,0.46 -0.94,0.89 -1.43,1.32 2.21,-0.43 4.44,-1.03 6.28,-2.31 0.77,-0.55 1.48,-1.2 1.94,-2.02 0.46,-0.83 0.65,-1.83 0.43,-2.75 -0.16,-0.62 -0.5,-1.19 -0.92,-1.67 -0.42,-0.48 -0.93,-0.87 -1.45,-1.24 -2.31,-1.62 -5.01,-2.65 -7.81,-2.99 -1.8,-0.33 -3.61,-0.61 -5.42,-0.83 -1.41,-0.18 -2.86,-0.33 -4.28,-0.25 z" />
            </defs>
            <use
               id="wing_tip_right_glare_1"
               href="#path_wing_tip_right_glare"
               xlink:href="#path_wing_tip_right_glare"
               fill="url(#fill_wing_tip_right_glare_1)"
               filter="url(#blur_wing_tip_right_glare)"
               clip-path="url(#clip_wing_tip_right)"
               x="0"
               y="0"
               width="100%"
               height="100%"
               style="fill:url(#fill_wing_tip_right_glare_1)" />
            <use
               id="wing_tip_right_glare_2"
               href="#path_wing_tip_right_glare"
               xlink:href="#path_wing_tip_right_glare"
               fill="url(#fill_wing_tip_right_glare_2)"
               filter="url(#blur_wing_tip_right_glare)"
               clip-path="url(#clip_wing_tip_right)"
               x="0"
               y="0"
               width="100%"
               height="100%"
               style="fill:url(#fill_wing_tip_right_glare_2)" />
          </g>
        </g>
        <g
           id="face">
          <g
             id="eyes">
            <g
               id="eye_left">
              <path
                 id="eyeball_left"
                 fill="url(#fill_eyeball_left)"
                 d="m 84.45,38.28 c -1.53,0.08 -3,0.79 -4.12,1.84 -1.13,1.05 -1.92,2.43 -2.41,3.88 -0.97,2.92 -0.75,6.08 -0.53,9.15 0.2,2.77 0.41,5.6 1.45,8.18 0.52,1.3 1.25,2.51 2.22,3.51 0.97,0.99 2.2,1.76 3.55,2.09 1.26,0.32 2.62,0.26 3.86,-0.13 1.25,-0.4 2.38,-1.11 3.32,-2.02 1.36,-1.33 2.27,-3.07 2.8,-4.9 0.53,-1.83 0.68,-3.75 0.65,-5.66 -0.04,-2.38 -0.35,-4.77 -1.09,-7.03 -0.75,-2.26 -1.94,-4.4 -3.6,-6.11 -0.8,-0.83 -1.72,-1.55 -2.75,-2.06 -1.04,-0.51 -2.2,-0.8 -3.35,-0.74 z"
                 style="fill:url(#fill_eyeball_left)" />
              <g
                 id="pupil_left">
                <path
                   id="pupil_left_base"
                   fill="#020204"
                   d="m 80.75,50.99 c -0.32,1.94 -0.33,3.97 0.33,5.81 0.44,1.22 1.17,2.33 2.05,3.28 0.57,0.62 1.23,1.18 1.99,1.55 0.77,0.37 1.65,0.52 2.48,0.32 0.76,-0.19 1.42,-0.68 1.91,-1.29 0.49,-0.61 0.82,-1.34 1.05,-2.09 0.69,-2.21 0.58,-4.62 -0.11,-6.83 -0.49,-1.61 -1.32,-3.16 -2.6,-4.24 -0.62,-0.52 -1.34,-0.93 -2.12,-1.11 -0.78,-0.19 -1.63,-0.14 -2.36,0.19 -0.81,0.37 -1.44,1.07 -1.85,1.86 -0.41,0.79 -0.62,1.67 -0.77,2.55 z" />
                <path
                   id="pupil_left_glare"
                   fill="url(#fill_pupil_left_glare)"
                   filter="url(#blur_pupil_left_glare)"
                   clip-path="url(#clip_pupil_left)"
                   d="m 84.84,49.59 c 0.21,0.55 0.91,0.75 1.3,1.19 0.37,0.42 0.76,0.87 0.97,1.4 0.39,1.01 -0.39,2.51 0.43,3.23 0.25,0.22 0.77,0.23 1.02,0 0.99,-0.9 0.77,-2.71 0.38,-3.99 -0.36,-1.15 -1.23,-2.25 -2.31,-2.8 -0.5,-0.26 -1.25,-0.47 -1.68,-0.11 -0.27,0.24 -0.24,0.74 -0.11,1.08 z"
                   style="fill:url(#fill_pupil_left_glare)" />
              </g>
              <path
                 id="eyelid_left"
                 fill="url(#fill_eyelid_left)"
                 clip-path="url(#clip_eye_left)"
                 d="m 81.14,44.46 c 2.32,-1.38 5.13,-1.7 7.82,-1.45 2.68,0.26 5.27,1.04 7.87,1.75 1.91,0.52 3.84,1 5.63,1.84 1.78,0.84 3.44,2.08 4.43,3.8 0.16,0.27 0.29,0.56 0.46,0.83 0.17,0.27 0.37,0.52 0.62,0.71 0.25,0.19 0.57,0.32 0.88,0.3 0.16,-0.01 0.32,-0.05 0.45,-0.13 0.14,-0.08 0.26,-0.2 0.33,-0.34 0.08,-0.16 0.11,-0.35 0.1,-0.53 -0.01,-0.18 -0.05,-0.36 -0.1,-0.54 -0.65,-2.37 -2.19,-4.38 -3.35,-6.55 -0.7,-1.3 -1.28,-2.66 -1.98,-3.96 -2.43,-4.45 -6.42,-7.94 -10.95,-10.21 -4.53,-2.27 -9.59,-3.36 -14.65,-3.65 -5.86,-0.35 -11.73,0.35 -17.51,1.37 -2.51,0.44 -5.06,0.96 -7.27,2.21 -1.11,0.62 -2.13,1.42 -2.92,2.42 -0.8,0.99 -1.36,2.18 -1.55,3.44 -0.17,1.22 0.01,2.47 0.44,3.62 0.42,1.15 1.08,2.2 1.86,3.15 1.54,1.91 3.53,3.39 5.36,5.03 1.83,1.63 3.52,3.44 5.57,4.79 1.02,0.68 2.13,1.24 3.31,1.57 1.18,0.33 2.44,0.42 3.64,0.17 1.24,-0.25 2.4,-0.86 3.41,-1.64 1.01,-0.77 1.88,-1.7 2.71,-2.66 1.66,-1.93 3.21,-4.04 5.39,-5.34 z"
                 style="fill:url(#fill_eyelid_left)" />
              <path
                 id="eyebrow_left"
                 fill="url(#fill_eyebrow_left)"
                 filter="url(#blur_eyebrow_left)"
                 d="m 90.77,36.57 c 2.16,2.02 3.76,4.52 4.85,7.16 -0.48,-2.91 -1.23,-5.26 -3.13,-7.16 -1.16,-1.09 -2.49,-2.05 -3.98,-2.72 -1.32,-0.59 -2.77,-0.96 -3.61,-0.97 -0.83,-0.02 -1.03,0 -1.2,0.01 -0.18,0.01 -0.31,0.01 0.23,0.08 0.54,0.06 1.75,0.39 3.05,0.97 1.3,0.58 2.62,1.54 3.79,2.63 z"
                 style="fill:url(#fill_eyebrow_left)" />
            </g>
            <g
               id="eye_right">
              <path
                 id="eyeball_right"
                 fill="url(#fill_eyeball_right)"
                 d="m 111.61,38.28 c -2.39,1.65 -4.4,3.94 -5.38,6.68 -1.24,3.45 -0.77,7.31 0.43,10.77 1.22,3.55 3.27,6.93 6.36,9.06 1.54,1.07 3.33,1.8 5.19,2.02 1.87,0.22 3.8,-0.09 5.47,-0.95 2.02,-1.06 3.57,-2.91 4.53,-4.98 0.96,-2.08 1.37,-4.37 1.5,-6.66 0.16,-2.9 -0.12,-5.86 -1.08,-8.61 -1.04,-2.99 -2.92,-5.75 -5.58,-7.47 -1.32,-0.86 -2.83,-1.45 -4.4,-1.67 -1.57,-0.22 -3.19,-0.05 -4.67,0.52 -0.84,0.33 -1.62,0.78 -2.37,1.29 z"
                 style="fill:url(#fill_eyeball_right)" />
              <g
                 id="pupil_right">
                <path
                   id="pupil_right_base"
                   fill="#020204"
                   d="m 117.14,45.52 c -0.9,0.06 -1.78,0.37 -2.55,0.85 -0.76,0.48 -1.41,1.13 -1.92,1.88 -1.03,1.49 -1.48,3.31 -1.55,5.12 -0.05,1.35 0.1,2.72 0.55,4 0.45,1.28 1.2,2.47 2.25,3.33 1.07,0.89 2.42,1.42 3.81,1.49 1.39,0.06 2.79,-0.34 3.93,-1.13 0.91,-0.63 1.64,-1.5 2.16,-2.48 0.52,-0.97 0.84,-2.05 0.98,-3.15 0.25,-1.93 -0.03,-3.95 -0.93,-5.69 -0.89,-1.74 -2.41,-3.17 -4.24,-3.84 -0.8,-0.29 -1.65,-0.44 -2.49,-0.38 z" />
                <path
                   id="pupil_right_glare"
                   fill="url(#fill_pupil_right_glare)"
                   filter="url(#blur_pupil_right_glare)"
                   clip-path="url(#clip_pupil_right)"
                   d="m 122.71,53.36 c 1,-1 -0.71,-3.65 -2.05,-4.74 -0.97,-0.78 -3.78,-1.61 -3.66,-0.75 0.12,0.85 1.39,1.95 2.23,2.79 1.05,1.03 3,3.18 3.48,2.7 z"
                   style="fill:url(#fill_pupil_right_glare)" />
              </g>
              <path
                 id="eyelid_right"
                 fill="url(#fill_eyelid_right)"
                 clip-path="url(#clip_eye_right)"
                 d="m 102.56,47.01 c 2.06,-1.71 4.45,-3.01 7,-3.8 5.25,-1.62 11.2,-0.98 15.84,1.97 1.6,1.01 3.03,2.27 4.52,3.45 1.48,1.17 3.06,2.27 4.85,2.9 0.97,0.34 2,0.54 3.02,0.43 0.92,-0.09 1.81,-0.44 2.57,-0.96 0.76,-0.53 1.4,-1.23 1.88,-2.02 0.96,-1.58 1.27,-3.5 1.1,-5.34 -0.33,-3.69 -2.41,-6.94 -4.15,-10.21 -0.55,-1.02 -1.07,-2.06 -1.73,-3.01 -2.01,-2.93 -5.23,-4.86 -8.6,-5.99 -3.37,-1.13 -6.93,-1.54 -10.46,-1.98 -1.58,-0.2 -3.17,-0.41 -4.74,-0.22 -1.81,0.22 -3.51,0.95 -5.28,1.4 -0.84,0.22 -1.69,0.37 -2.52,0.61 -0.83,0.24 -1.65,0.57 -2.33,1.11 -0.98,0.79 -1.6,1.98 -1.87,3.21 -0.27,1.24 -0.21,2.52 -0.01,3.77 0.39,2.5 1.33,4.93 1.24,7.46 -0.06,1.73 -0.61,3.44 -0.54,5.17 0.02,0.51 0.12,1.55 0.21,2.05 z"
                 style="fill:url(#fill_eyelid_right)" />
              <path
                 id="eyebrow_right"
                 fill="url(#fill_eyebrow_right)"
                 filter="url(#blur_eyebrow_right)"
                 d="m 119.93,31.18 c -0.41,0.52 -0.78,1.08 -1.07,1.7 1.85,0.4 3.61,1.16 5.19,2.21 3.06,2.03 5.38,4.99 7.01,8.29 0.38,-0.42 0.72,-0.87 1.02,-1.37 -1.64,-3.44 -4,-6.55 -7.16,-8.65 -1.52,-1 -3.21,-1.77 -4.99,-2.18 z"
                 style="fill:url(#fill_eyebrow_right)" />
            </g>
          </g>
          <g
             id="beak">
            <g
               id="beak_shadow">
              <path
                 id="beak_shadow_lower"
                 fill="#000000"
                 fill-opacity="0.258824"
                 filter="url(#blur_beak_shadow_lower)"
                 clip-path="url(#clip_body)"
                 d="m 81.12,89.33 c 1.47,4.26 4.42,7.89 7.92,10.72 1.16,0.95 2.39,1.82 3.76,2.43 1.36,0.62 2.87,0.97 4.36,0.84 1.46,-0.12 2.85,-0.7 4.13,-1.42 1.28,-0.72 2.46,-1.59 3.7,-2.37 2.12,-1.35 4.39,-2.44 6.6,-3.64 2.65,-1.45 5.23,-3.1 7.46,-5.14 1.03,-0.93 1.98,-1.95 3.11,-2.75 1.13,-0.81 2.49,-1.39 3.87,-1.29 1.04,0.07 2.01,0.51 3.03,0.73 0.51,0.11 1.03,0.16 1.55,0.08 0.51,-0.08 1.01,-0.29 1.37,-0.67 0.44,-0.46 0.64,-1.12 0.61,-1.76 -0.02,-0.63 -0.24,-1.25 -0.54,-1.81 -0.59,-1.13 -1.49,-2.1 -1.89,-3.31 -0.36,-1.08 -0.29,-2.24 -0.26,-3.37 0.03,-1.14 0.01,-2.32 -0.51,-3.33 -0.4,-0.76 -1.07,-1.37 -1.83,-1.77 -0.76,-0.41 -1.62,-0.62 -2.48,-0.7 -1.72,-0.16 -3.44,0.18 -5.17,0.27 -2.28,0.13 -4.58,-0.15 -6.87,-0.02 -2.85,0.18 -5.65,1 -8.51,1.01 -3.26,0.01 -6.52,-1.06 -9.74,-0.55 -1.39,0.22 -2.71,0.72 -4.03,1.16 -1.33,0.45 -2.7,0.84 -4.1,0.82 -1.59,-0.03 -3.13,-0.58 -4.72,-0.69 -0.79,-0.06 -1.6,0 -2.35,0.28 -0.74,0.28 -1.41,0.79 -1.78,1.5 -0.21,0.4 -0.31,0.86 -0.33,1.31 -0.02,0.46 0.04,0.91 0.15,1.36 0.22,0.88 0.63,1.71 0.96,2.55 1.2,3.07 1.46,6.42 2.53,9.53 z" />
              <path
                 id="beak_shadow_upper"
                 opacity="0.3"
                 fill="#000000"
                 filter="url(#blur_beak_shadow_upper)"
                 clip-path="url(#clip_body)"
                 d="m 77.03,77.2 c 2.85,1.76 5.41,3.93 7.56,6.39 1.99,2.29 3.68,4.89 6.29,6.58 1.83,1.2 4.04,1.87 6.28,2.08 2.63,0.24 5.29,-0.15 7.83,-0.84 2.35,-0.63 4.62,-1.53 6.7,-2.71 3.97,-2.25 7.28,-5.55 11.65,-7.03 0.95,-0.33 1.94,-0.56 2.86,-0.96 0.92,-0.39 1.79,-0.99 2.23,-1.83 0.42,-0.82 0.4,-1.75 0.54,-2.64 0.15,-0.96 0.48,-1.88 0.66,-2.83 0.18,-0.95 0.2,-1.96 -0.24,-2.83 -0.37,-0.72 -1.04,-1.29 -1.81,-1.66 -0.77,-0.36 -1.64,-0.52 -2.51,-0.56 -1.72,-0.08 -3.43,0.33 -5.16,0.47 -2.28,0.19 -4.58,-0.08 -6.87,-0.01 -2.85,0.08 -5.66,0.67 -8.51,0.8 -3.25,0.14 -6.49,-0.34 -9.74,-0.44 -1.41,-0.05 -2.83,-0.03 -4.21,0.2 -1.39,0.22 -2.75,0.65 -3.92,1.37 -1.14,0.69 -2.07,1.64 -3.11,2.45 -0.52,0.41 -1.08,0.78 -1.68,1.07 -0.61,0.28 -1.28,0.48 -1.96,0.51 -0.35,0.01 -0.71,-0.01 -1.05,0.04 -0.59,0.08 -1.13,0.39 -1.47,0.83 -0.34,0.45 -0.47,1.02 -0.36,1.55 z" />
            </g>
            <path
               id="beak_base"
               fill="url(#fill_beak_base)"
               d="m 91.66,58.53 c 1.53,-1.71 2.57,-3.8 4.03,-5.56 0.73,-0.88 1.58,-1.69 2.57,-2.26 0.99,-0.57 2.15,-0.89 3.29,-0.79 1.27,0.11 2.46,0.74 3.39,1.61 0.93,0.87 1.62,1.97 2.17,3.12 0.53,1.11 0.95,2.28 1.71,3.24 0.81,1.02 1.94,1.71 2.97,2.52 0.51,0.4 1.01,0.83 1.41,1.34 0.41,0.51 0.72,1.1 0.86,1.74 0.13,0.65 0.06,1.33 -0.16,1.95 -0.23,0.62 -0.61,1.18 -1.09,1.64 -0.95,0.92 -2.25,1.42 -3.56,1.6 -2.62,0.37 -5.27,-0.41 -7.92,-0.34 -2.67,0.08 -5.29,1.02 -7.97,0.93 -1.33,-0.05 -2.69,-0.38 -3.79,-1.14 -0.55,-0.39 -1.03,-0.88 -1.38,-1.45 -0.34,-0.57 -0.55,-1.23 -0.58,-1.9 -0.02,-0.64 0.13,-1.28 0.39,-1.86 0.25,-0.59 0.61,-1.12 1.01,-1.62 0.81,-0.99 1.8,-1.81 2.65,-2.77 z"
               style="fill:url(#fill_beak_base)" />
            <g
               id="mandible_lower">
              <path
                 id="mandible_lower_base"
                 fill="url(#fill_mandible_lower_base)"
                 d="m 77.14,75.05 c 0.06,0.26 0.15,0.5 0.28,0.73 0.23,0.38 0.57,0.69 0.93,0.95 0.36,0.27 0.75,0.49 1.13,0.72 2.01,1.27 3.65,3.04 5.11,4.92 1.95,2.52 3.68,5.31 6.29,7.14 1.84,1.3 4.04,2.03 6.28,2.26 2.63,0.26 5.29,-0.16 7.83,-0.91 2.35,-0.69 4.62,-1.66 6.7,-2.95 3.97,-2.44 7.28,-6.02 11.65,-7.63 0.95,-0.35 1.94,-0.6 2.86,-1.03 0.92,-0.44 1.79,-1.08 2.23,-2 0.42,-0.88 0.4,-1.9 0.54,-2.87 0.15,-1.03 0.48,-2.03 0.66,-3.06 0.18,-1.03 0.2,-2.13 -0.24,-3.08 -0.37,-0.78 -1.04,-1.4 -1.81,-1.79 -0.77,-0.4 -1.64,-0.58 -2.51,-0.62 -1.72,-0.08 -3.43,0.36 -5.16,0.52 -2.28,0.21 -4.58,-0.09 -6.87,-0.02 -2.85,0.09 -5.66,0.73 -8.51,0.87 -3.25,0.15 -6.49,-0.35 -9.74,-0.48 -1.41,-0.06 -2.83,-0.04 -4.22,0.2 -1.39,0.23 -2.75,0.71 -3.91,1.51 -1.13,0.78 -2.03,1.84 -3.07,2.74 -0.52,0.45 -1.08,0.86 -1.7,1.16 -0.61,0.3 -1.29,0.49 -1.98,0.47 -0.35,-0.01 -0.72,-0.06 -1.05,0.04 -0.21,0.07 -0.4,0.2 -0.56,0.35 -0.16,0.16 -0.29,0.34 -0.41,0.52 -0.29,0.42 -0.54,0.87 -0.75,1.34 z"
                 style="fill:url(#fill_mandible_lower_base)" />
              <path
                 id="mandible_lower_glare"
                 fill="#d9b30d"
                 filter="url(#blur_mandible_lower_glare)"
                 clip-path="url(#clip_mandible_lower)"
                 d="m 89.9,78.56 c -0.33,1.37 -0.13,2.87 0.56,4.11 0.68,1.24 1.84,2.2 3.19,2.65 1.7,0.57 3.62,0.29 5.21,-0.54 0.93,-0.48 1.77,-1.16 2.3,-2.06 0.27,-0.44 0.46,-0.94 0.53,-1.46 0.06,-0.51 0.02,-1.05 -0.16,-1.54 -0.2,-0.53 -0.56,-1 -0.99,-1.37 -0.44,-0.37 -0.95,-0.64 -1.5,-0.82 -1.08,-0.36 -2.77,-0.66 -3.91,-0.68 -2.02,-0.04 -4.9,0.34 -5.23,1.71 z" />
            </g>
            <g
               id="mandible_upper">
              <path
                 id="mandible_upper_shadow"
                 fill="#604405"
                 filter="url(#blur_mandible_upper_shadow)"
                 clip-path="url(#clip_mandible_lower)"
                 d="m 84.31,67.86 c -1.16,0.68 -2.27,1.43 -3.36,2.2 -0.57,0.41 -1.15,0.84 -1.45,1.47 -0.21,0.44 -0.26,0.94 -0.27,1.43 0,0.5 0.03,0.99 -0.04,1.48 -0.04,0.33 -0.13,0.66 -0.14,0.99 -0.01,0.17 0,0.34 0.04,0.5 0.05,0.16 0.13,0.32 0.24,0.44 0.15,0.16 0.35,0.26 0.56,0.32 0.21,0.06 0.42,0.09 0.64,0.14 1.01,0.24 1.89,0.86 2.66,1.56 0.77,0.69 1.47,1.48 2.28,2.13 2.18,1.78 5.07,2.52 7.89,2.56 2.82,0.05 5.61,-0.54 8.36,-1.16 2.16,-0.49 4.32,-0.99 6.39,-1.76 3.2,-1.18 6.16,-2.96 8.72,-5.19 1.17,-1.01 2.26,-2.12 3.57,-2.94 1.15,-0.73 2.44,-1.21 3.62,-1.9 0.11,-0.06 0.21,-0.13 0.3,-0.2 0.1,-0.08 0.18,-0.18 0.24,-0.28 0.09,-0.19 0.09,-0.42 0.03,-0.62 -0.06,-0.2 -0.18,-0.38 -0.31,-0.55 -0.15,-0.18 -0.31,-0.34 -0.49,-0.5 -1.23,-1.05 -2.89,-1.43 -4.51,-1.56 -1.61,-0.12 -3.24,-0.03 -4.83,-0.3 -1.5,-0.25 -2.92,-0.81 -4.37,-1.27 -1.52,-0.49 -3.07,-0.87 -4.64,-1.13 -3.71,-0.61 -7.52,-0.49 -11.19,0.27 -3.49,0.73 -6.87,2.05 -9.94,3.87 z" />
              <path
                 id="mandible_upper_base"
                 fill="url(#fill_mandible_upper_base)"
                 d="m 83.94,63.95 c -1.66,1.12 -3.16,2.49 -4.43,4.04 -0.72,0.89 -1.38,1.86 -1.74,2.94 -0.29,0.86 -0.39,1.76 -0.57,2.65 -0.07,0.33 -0.15,0.66 -0.14,1 0,0.16 0.02,0.33 0.07,0.5 0.05,0.16 0.14,0.31 0.25,0.43 0.2,0.2 0.47,0.31 0.74,0.37 0.28,0.05 0.56,0.06 0.84,0.09 1.25,0.15 2.4,0.75 3.44,1.47 1.04,0.71 2,1.55 3.07,2.22 2.35,1.49 5.16,2.15 7.95,2.26 2.78,0.11 5.56,-0.31 8.3,-0.86 2.17,-0.43 4.33,-0.95 6.39,-1.76 3.16,-1.25 6.01,-3.16 8.72,-5.19 1.24,-0.92 2.46,-1.87 3.57,-2.94 0.37,-0.37 0.74,-0.74 1.14,-1.08 0.4,-0.33 0.85,-0.62 1.35,-0.78 0.76,-0.24 1.58,-0.17 2.37,-0.04 0.59,0.1 1.18,0.23 1.78,0.21 0.3,-0.02 0.6,-0.07 0.88,-0.18 0.28,-0.11 0.54,-0.28 0.73,-0.52 0.25,-0.3 0.38,-0.7 0.38,-1.09 0,-0.4 -0.12,-0.79 -0.32,-1.13 -0.4,-0.68 -1.09,-1.14 -1.81,-1.46 -0.99,-0.44 -2.06,-0.65 -3.11,-0.91 -3.23,-0.78 -6.37,-1.93 -9.34,-3.41 -1.48,-0.73 -2.92,-1.54 -4.37,-2.32 -1.5,-0.8 -3.02,-1.57 -4.64,-2.07 -3.64,-1.1 -7.6,-0.74 -11.19,0.51 -3.98,1.38 -7.58,3.84 -10.31,7.05 z"
                 style="fill:url(#fill_mandible_upper_base)" />
              <path
                 id="mandible_upper_glare"
                 fill="#f6da4a"
                 filter="url(#blur_mandible_upper_glare)"
                 clip-path="url(#clip_mandible_upper)"
                 d="m 109.45,64.75 c -0.2,-0.24 -0.48,-0.42 -0.78,-0.51 -0.3,-0.09 -0.62,-0.09 -0.93,-0.04 -0.62,0.11 -1.18,0.44 -1.7,0.8 -1.47,1.01 -2.77,2.26 -3.91,3.64 -1.5,1.83 -2.74,3.94 -3.16,6.27 -0.07,0.39 -0.11,0.8 -0.07,1.19 0.05,0.4 0.2,0.79 0.49,1.07 0.24,0.25 0.58,0.4 0.92,0.45 0.35,0.05 0.71,0 1.04,-0.11 0.66,-0.22 1.21,-0.69 1.74,-1.15 2.87,-2.58 5.47,-5.66 6.51,-9.38 0.1,-0.37 0.19,-0.75 0.19,-1.14 0,-0.39 -0.1,-0.78 -0.34,-1.09 z" />
              <path
                 id="naris_left"
                 opacity="0.8"
                 fill="url(#fill_naris_left)"
                 filter="url(#blur_naris_left)"
                 d="m 92.72,59.06 c -0.77,-0.25 -2.03,1.1 -1.62,1.79 0.11,0.19 0.46,0.43 0.7,0.3 0.35,-0.19 0.64,-0.89 1.02,-1.16 0.25,-0.18 0.2,-0.84 -0.1,-0.93 z"
                 style="fill:url(#fill_naris_left)" />
              <path
                 id="naris_right"
                 opacity="0.8"
                 fill="url(#fill_naris_right)"
                 filter="url(#blur_naris_right)"
                 d="m 102.56,59.42 c 0.2,0.64 1.23,0.53 1.83,0.84 0.52,0.27 0.94,0.86 1.53,0.88 0.56,0.01 1.44,-0.2 1.51,-0.76 0.09,-0.73 -0.98,-1.2 -1.67,-1.47 -0.89,-0.34 -2.03,-0.52 -2.86,-0.06 -0.19,0.11 -0.4,0.36 -0.34,0.57 z"
                 style="fill:url(#fill_naris_right)" />
            </g>
            <path
               id="beak_corner"
               fill="url(#fill_beak_corner)"
               filter="url(#blur_beak_corner)"
               clip-path="url(#clip_beak)"
               d="m 129.27,69.15 a 2.42,3.1 16.94 0 1 -2.81,3.04 2.42,3.1 16.94 0 1 -2.12,-3.04 2.42,3.1 16.94 0 1 2.81,-3.05 2.42,3.1 16.94 0 1 2.12,3.05 z"
               style="fill:url(#fill_beak_corner)" />
          </g>
        </g>
      </g>
      <text
         xml:space="preserve"
         style="font-size:9.12746px;line-height:1.25;font-family:Shne;-inkscape-font-specification:Shne;letter-spacing:0.529167px;stroke-width:0.347592"
         id="text15652"
         x="-48.754856"
         y="147.02539"
         transform="rotate(-60)"><tspan
           style="font-style:normal;font-variant:normal;font-weight:bold;font-stretch:normal;font-family:Ubuntu;-inkscape-font-specification:'Ubuntu Bold';stroke-width:0.347592"
           id="tspan67183">LINUX</tspan></text>
    </g>
    <ellipse
       style="opacity:0;fill:none;stroke:#000000;stroke-width:0.48201;-inkscape-stroke:none;stop-color:#000000"
       id="path19124"
       cx="-4.2389426"
       cy="45.537918"
       rx="24.97393"
       ry="24.974558"
       transform="matrix(-0.83678304,0.54753461,0.54753461,0.83678304,0,0)"
       inkscape:export-filename="/home/dognew/Projetos/pi-2023-altismo/sources/arts/uml-project.png"
       inkscape:export-xdpi="100"
       inkscape:export-ydpi="100" />
  </g>
</svg>
